<svg width="7" height="12" viewBox="0 0 7 12" fill="none" xmlns="http://www.w3.org/2000/svg">
<path d="M1.83875 1.756L1.51875 4.972C1.65742 4.94 1.85475 4.908 2.11075 4.876C2.37742 4.844 2.65475 4.828 2.94275 4.828C3.40142 4.828 3.84409 4.892 4.27075 5.02C4.70809 5.13733 5.09209 5.33467 5.42275 5.612C5.75342 5.87867 6.02009 6.23067 6.22275 6.668C6.42542 7.10533 6.52675 7.644 6.52675 8.284C6.52675 8.764 6.45742 9.212 6.31875 9.628C6.18009 10.044 5.96675 10.412 5.67875 10.732C5.39075 11.0413 5.02809 11.2867 4.59075 11.468C4.15342 11.6493 3.64142 11.74 3.05475 11.74C2.63875 11.74 2.26542 11.7027 1.93475 11.628C1.61475 11.5533 1.33742 11.4627 1.10275 11.356C0.868086 11.2493 0.676086 11.1427 0.526753 11.036C0.377419 10.9293 0.276086 10.8493 0.222753 10.796C0.169419 10.7533 0.121419 10.7 0.0787528 10.636C0.0360861 10.572 0.0147527 10.5027 0.0147527 10.428C0.0147527 10.2573 0.142753 10.028 0.398753 9.74C0.473419 9.836 0.585419 9.95333 0.734753 10.092C0.894753 10.2307 1.08142 10.364 1.29475 10.492C1.51875 10.6093 1.77475 10.7107 2.06275 10.796C2.36142 10.8813 2.69742 10.924 3.07075 10.924C3.35875 10.924 3.64675 10.876 3.93475 10.78C4.23342 10.684 4.50009 10.5347 4.73475 10.332C4.98009 10.1293 5.17742 9.868 5.32675 9.548C5.48675 9.21733 5.56675 8.82267 5.56675 8.364C5.56675 7.77733 5.46542 7.308 5.26275 6.956C5.07075 6.59333 4.83075 6.316 4.54275 6.124C4.25475 5.932 3.94009 5.804 3.59875 5.74C3.26809 5.676 2.96409 5.644 2.68675 5.644C2.31342 5.644 1.95609 5.676 1.61475 5.74C1.28409 5.79333 1.01209 5.84667 0.798753 5.9L0.558753 5.788L1.03875 0.891999H6.11075C6.12142 0.945333 6.12675 0.993333 6.12675 1.036C6.12675 1.23867 6.06809 1.40933 5.95075 1.548C5.83342 1.68667 5.64675 1.756 5.39075 1.756H1.83875Z" fill="white"/>
</svg>
