<svg width="25" height="24" viewBox="0 0 25 24" fill="none" xmlns="http://www.w3.org/2000/svg">
<path d="M7.60275 18C8.43118 18 9.10275 18.6716 9.10275 19.5C9.10275 20.3284 8.43118 21 7.60275 21C6.77433 21 6.10275 20.3284 6.10275 19.5C6.10275 18.6716 6.77433 18 7.60275 18Z" stroke="white" stroke-width="1.5"/>
<path d="M16.6028 18.0001C17.4312 18.0001 18.1028 18.6716 18.1028 19.5001C18.1028 20.3285 17.4312 21.0001 16.6028 21.0001C15.7743 21.0001 15.1028 20.3285 15.1028 19.5001C15.1028 18.6716 15.7743 18.0001 16.6028 18.0001Z" stroke="white" stroke-width="1.5"/>
<path d="M2.36396 3.09184L2.61272 2.38429H2.61272L2.36396 3.09184ZM2.35151 2.29246C1.96074 2.15507 1.53259 2.36048 1.39521 2.75124C1.25782 3.14201 1.46323 3.57016 1.85399 3.70754L2.35151 2.29246ZM4.68859 4.32298L5.30782 3.89983V3.89983L4.68859 4.32298ZM5.99047 14.5862L5.4462 15.1022H5.44621L5.99047 14.5862ZM20.7605 9.88275L21.4951 10.0342L21.496 10.0296L20.7605 9.88275ZM20.2608 12.3075L20.9953 12.4589L20.2608 12.3075ZM20.8373 6.69708L20.2428 7.15439L20.8373 6.69708ZM19.2364 15.0504L18.7626 14.469L19.2364 15.0504ZM5.81083 9.76V7.03836H4.31083V9.76H5.81083ZM2.61272 2.38429L2.35151 2.29246L1.85399 3.70754L2.1152 3.79938L2.61272 2.38429ZM11.0402 16.25H16.3431V14.75H11.0402V16.25ZM5.81083 7.03836C5.81083 6.3312 5.81185 5.7411 5.75995 5.26157C5.70622 4.76519 5.5898 4.31247 5.30782 3.89983L4.06936 4.74613C4.15962 4.87822 4.22933 5.05964 4.26866 5.42299C4.30981 5.8032 4.31083 6.29841 4.31083 7.03836H5.81083ZM2.1152 3.79938C2.78281 4.0341 3.22157 4.18965 3.54441 4.34806C3.84763 4.49684 3.98131 4.61727 4.06936 4.74613L5.30782 3.89983C5.02364 3.48397 4.64579 3.21763 4.20516 3.00143C3.78414 2.79485 3.2467 2.60719 2.61272 2.38429L2.1152 3.79938ZM4.31083 9.76C4.31083 11.2125 4.32446 12.2599 4.46151 13.0601C4.60784 13.9144 4.89997 14.5261 5.4462 15.1022L6.53473 14.0702C6.21457 13.7325 6.04188 13.4018 5.93999 12.8069C5.82882 12.1578 5.81083 11.249 5.81083 9.76H4.31083ZM11.0402 14.75C9.62345 14.75 8.64038 14.7482 7.89971 14.6432C7.1849 14.5418 6.80728 14.3576 6.53473 14.0702L5.44621 15.1022C6.04006 15.7286 6.79287 16.0013 7.68911 16.1283C8.55949 16.2518 9.66811 16.25 11.0402 16.25V14.75ZM5.06083 6.87H17.1916V5.37H5.06083V6.87ZM20.026 9.73135L19.5262 12.1561L20.9953 12.4589L21.4951 10.0342L20.026 9.73135ZM17.1916 6.87C18.048 6.87 18.8017 6.871 19.3965 6.93749C19.692 6.97053 19.9132 7.01643 20.0686 7.07105C20.2301 7.12776 20.2558 7.17127 20.2428 7.15439L21.4317 6.23978C21.1968 5.93436 20.8664 5.76145 20.5659 5.65587C20.2594 5.54818 19.9129 5.48587 19.5631 5.44678C18.8673 5.369 18.0202 5.37 17.1916 5.37V6.87ZM21.496 10.0296C21.6653 9.18167 21.8089 8.47024 21.8441 7.90038C21.8803 7.31418 21.8136 6.73617 21.4317 6.23978L20.2428 7.15439C20.3049 7.23508 20.3734 7.38037 20.347 7.80797C20.3196 8.25191 20.2029 8.84478 20.025 9.73595L21.496 10.0296ZM16.3431 16.25C17.1048 16.25 17.744 16.2513 18.2593 16.1882C18.7951 16.1227 19.2837 15.9794 19.7102 15.6318L18.7626 14.469C18.6374 14.571 18.4598 14.6525 18.0771 14.6994C17.674 14.7487 17.1424 14.75 16.3431 14.75V16.25ZM19.5262 12.1561C19.3649 12.9389 19.2563 13.4593 19.1266 13.8442C19.0034 14.2095 18.8878 14.367 18.7626 14.469L19.7102 15.6318C20.1367 15.2842 20.3757 14.8346 20.548 14.3232C20.7138 13.8312 20.8416 13.2049 20.9953 12.4589L19.5262 12.1561Z" fill="white"/>
</svg>
