<svg width="16" height="16" viewBox="0 0 16 16" fill="none" xmlns="http://www.w3.org/2000/svg">
<g clip-path="url(#clip0_15_1306)">
<path d="M0.290003 2.22004C0.160003 2.45004 0.120003 2.67004 0.150003 2.88004C0.010003 3.40004 -0.839997 7.40004 3.76 11.85C8.43 16.37 12.28 15.46 12.84 15.17C13.05 15.19 13.27 15.14 13.49 15.01C13.93 14.75 14.68 14.11 14.97 13.74C15.39 13.22 15.26 12.85 14.78 12.52L11.29 10.13C10.94 9.89004 10.47 9.98004 10.25 10.3L9.34 11.58C9.29 11.66 9.25 11.74 9.24 11.84C9.12 11.91 7.96 12.49 5.8 10.33C3.58 8.12004 3.37 7.03004 3.61 6.37004C3.69 6.35004 3.77 6.32004 3.84 6.26004L5.09 5.31004C5.41 5.07004 5.47 4.60004 5.22 4.26004L2.73 0.850044C2.38 0.370044 2.01 0.260044 1.51 0.700044C1.15 1.00004 0.540003 1.78004 0.290003 2.22004Z" fill="white"/>
<path d="M11.14 7.81997C11.14 7.81997 11.07 7.81997 11.03 7.81997C10.62 7.75997 10.34 7.37997 10.4 6.96997C10.49 6.31997 10.4 5.83997 10.11 5.52997C9.65005 5.02997 8.73005 4.97997 8.42005 4.99997C8.01005 5.01997 7.65005 4.71997 7.62005 4.30997C7.59005 3.89997 7.90005 3.53997 8.31005 3.50997C8.50005 3.50997 10.17 3.39997 11.21 4.50997C11.83 5.16997 12.06 6.06997 11.9 7.19997C11.85 7.56997 11.53 7.83997 11.16 7.83997L11.14 7.81997Z" fill="white"/>
<path d="M14.91 8.43996H14.86C14.45 8.43996 14.13 8.05996 14.16 7.64996C14.29 5.48996 13.8 3.86996 12.7 2.83996C10.93 1.18996 8.13 1.52996 8.1 1.53996C7.69 1.59996 7.31 1.30996 7.26 0.899962C7.21 0.489962 7.5 0.109962 7.91 0.0599623C8.05 0.0399623 11.44 -0.370038 13.72 1.75996C15.16 3.10996 15.81 5.11996 15.65 7.74996C15.63 8.14996 15.3 8.44996 14.9 8.44996L14.91 8.43996Z" fill="white"/>
</g>
<defs>
<clipPath id="clip0_15_1306">
<rect width="15.68" height="15.44" fill="white"/>
</clipPath>
</defs>
</svg>
