<svg width="30" height="30" viewBox="0 0 30 30" fill="none" xmlns="http://www.w3.org/2000/svg">
<path d="M11.25 15C11.25 15.6904 10.6904 16.25 10 16.25C9.30964 16.25 8.75 15.6904 8.75 15C8.75 14.3096 9.30964 13.75 10 13.75C10.6904 13.75 11.25 14.3096 11.25 15Z" fill="white"/>
<path d="M16.25 15C16.25 15.6904 15.6904 16.25 15 16.25C14.3096 16.25 13.75 15.6904 13.75 15C13.75 14.3096 14.3096 13.75 15 13.75C15.6904 13.75 16.25 14.3096 16.25 15Z" fill="white"/>
<path d="M21.25 15C21.25 15.6904 20.6904 16.25 20 16.25C19.3096 16.25 18.75 15.6904 18.75 15C18.75 14.3096 19.3096 13.75 20 13.75C20.6904 13.75 21.25 14.3096 21.25 15Z" fill="white"/>
<path d="M15 27.5C21.9036 27.5 27.5 21.9036 27.5 15C27.5 8.09644 21.9036 2.5 15 2.5C8.09644 2.5 2.5 8.09644 2.5 15C2.5 16.9996 2.96952 18.8895 3.80433 20.5656C4.02617 21.011 4.10001 21.5201 3.9714 22.0008L3.22689 24.7833C2.90369 25.9912 4.00877 27.0963 5.21668 26.7731L7.99923 26.0286C8.47992 25.9 8.98901 25.9738 9.43441 26.1957C11.1105 27.0305 13.0004 27.5 15 27.5Z" stroke="white" stroke-width="1.5"/>
</svg>
