<svg width="8" height="13" viewBox="0 0 8 13" fill="none" xmlns="http://www.w3.org/2000/svg">
<path d="M6.82308 1.89481C6.18291 0.861938 5.10949 0.228275 3.89381 0.164909C3.75802 0.158572 3.62222 0.158572 3.48643 0.164909C2.26428 0.228275 1.19733 0.861938 0.557155 1.89481C-0.102417 2.95303 -0.180013 4.25837 0.343764 5.37996L3.53816 12.0651C3.56402 12.1221 3.62869 12.1602 3.69335 12.1602C3.75802 12.1602 3.81621 12.1221 3.84855 12.0651L7.04294 5.37996C7.56672 4.25837 7.48266 2.95303 6.82955 1.89481H6.82308ZM3.69335 5.7158C2.61347 5.7158 1.73404 4.85402 1.73404 3.7958C1.73404 2.73758 2.61347 1.8758 3.69335 1.8758C4.77324 1.8758 5.65267 2.73758 5.65267 3.7958C5.65267 4.85402 4.77324 5.7158 3.69335 5.7158Z" fill="#007C4D"/>
</svg>
