<svg width="151" height="68" viewBox="0 0 151 68" fill="none" xmlns="http://www.w3.org/2000/svg">
<g clip-path="url(#clip0_9_439)">
<path d="M91.459 28.6521C91.459 28.0792 91.6853 27.5298 92.088 27.1247C92.4908 26.7196 93.037 26.492 93.6066 26.492C94.1761 26.492 94.7224 26.7196 95.1251 27.1247C95.5279 27.5298 95.7541 28.0792 95.7541 28.6521C95.7541 29.225 95.5279 29.7744 95.1251 30.1795C94.7224 30.5846 94.1761 30.8122 93.6066 30.8122C93.037 30.8122 92.4908 30.5846 92.088 30.1795C91.6853 29.7744 91.459 29.225 91.459 28.6521ZM78.348 42.8239V33.5953H71.1528V33.8632H74.6259V58.2824H71.1528V58.556H82.0411V58.2824H78.5332V44.1164C78.5332 38.9927 80.8486 33.1295 84.9469 33.7875V33.4032C80.5708 33.4032 78.6606 37.8457 78.348 42.8239ZM108.448 43.1383C104.078 41.1412 103.302 40.0116 103.302 37.7467C103.302 35.5866 104.535 33.3275 107.679 33.3275C108.818 33.3367 109.919 33.7489 110.787 34.492V33.9447C109.832 33.4109 108.76 33.1248 107.667 33.1121C103.563 33.1121 100.784 35.9127 100.784 39.7962C100.784 43.2897 101.971 45.4032 106.48 47.8253C110.127 49.7118 113.357 50.3581 113.357 53.7001C113.357 57.0422 111.447 58.8239 108.118 58.8239C107.269 58.8077 106.433 58.6111 105.665 58.2468C104.897 57.8826 104.214 57.3589 103.661 56.7103V57.7176C104.964 58.2999 106.556 59.0917 108.118 59.0917C113.27 59.0917 116.321 55.8079 116.321 51.5226C116.35 48.2562 114.972 46.1543 108.454 43.1383H108.448ZM124.378 26.9636L120.465 33.77V53.1645C120.465 57.5313 122.474 59.0917 125.675 59.0917C126.206 59.0903 126.73 58.9801 127.217 58.7679C127.704 58.5557 128.142 58.2458 128.506 57.8573V57.4323C128.261 57.7189 127.961 57.9521 127.624 58.1173C127.286 58.2826 126.918 58.3764 126.543 58.393C124.228 58.393 124.355 55.1557 124.355 53.1528V33.8632H129.687V33.5953H124.355L124.378 26.9636ZM151.006 57.6536V58.0204C150.659 58.3732 150.243 58.6504 149.785 58.8347C149.327 59.019 148.836 59.1065 148.343 59.0917C145.929 59.0917 144.43 57.6361 144.43 53.8515V53.0539C143.787 56.1805 141.738 59.0917 138.323 59.0917C134.723 59.0917 130.798 57.7467 130.798 52.687C130.821 47.1616 135.313 45.9971 139.226 45.2402C140.824 44.9665 143.012 44.6987 144.436 44.4833V44.163C144.436 38.6608 144.754 33.3275 140.06 33.3275C138.884 33.2595 137.719 33.5873 136.749 34.2591V33.7351C137.805 33.3242 138.927 33.113 140.06 33.1121C145.935 33.1121 148.349 36.722 148.349 43.3537V53.8341C148.349 56.262 148.216 58.3057 149.715 58.3057C149.963 58.291 150.206 58.2244 150.427 58.1101C150.648 57.9958 150.843 57.8363 151 57.6419L151.006 57.6536ZM144.424 44.7511C143.099 44.9665 141.049 45.1878 139.411 45.508C135.446 46.3697 134.948 50.3581 134.948 52.623C134.948 56.0757 136.106 58.7715 138.728 58.7715C142.144 58.7715 144.424 54.9403 144.424 50.7365V44.7511ZM69.0805 46.1019C69.0805 53.0015 64.8433 59.0917 58.5106 59.0917C52.178 59.0917 47.8944 52.984 47.8944 46.1019C47.8944 39.2198 52.1316 33.1121 58.5106 33.1121C64.8896 33.1121 69.0805 39.2023 69.0805 46.1019ZM64.8896 46.1019C64.8896 40.8617 63.9287 33.3275 58.5222 33.3275C53.1157 33.3275 52.0969 40.8734 52.0969 46.1019C52.0969 51.3304 53.0868 58.8064 58.5106 58.8064C63.9345 58.8064 64.8896 51.3304 64.8896 46.1019ZM42.951 58.2824H46.4241V58.556H35.5243V58.2824H39.0322V34.1019L26.772 55.4352V55.6914L23.0268 62.2067H22.8763L19.5479 68.0291L19.4206 67.8137L0 33.9971L19.5479 0L19.6811 0.215429L31.3508 20.5298H31.3971V20.6114L39.0264 33.8865V21.0771H35.5243V20.8035H42.951V58.2824ZM19.5479 0.582242L16.4974 5.88064V12.2853V33.8632H22.7895C23.021 23.6332 25.8401 20.3785 30.1004 20.3785C30.3989 20.3806 30.6967 20.4039 30.9919 20.4483L19.5479 0.582242ZM12.5727 34.1368H0.410987L7.85506 47.0859C8.28484 47.2376 8.73673 47.3163 9.19221 47.3188C13.8925 47.3188 12.7348 40.099 12.5727 34.1368ZM11.3745 14.7948L0.410987 33.8632H12.5206V12.8093L11.3745 14.7948ZM19.5479 67.4236L22.7953 61.7758V55.7263V34.1368H16.4974C16.2658 44.3668 13.4468 47.5924 9.19221 47.5924C8.8274 47.589 8.46347 47.5559 8.10396 47.4934L19.5479 67.4236ZM38.7833 33.9971L31.2582 20.9141C30.8934 20.7532 30.4988 20.6718 30.1004 20.6754C25.3828 20.6754 26.5405 27.901 26.7257 33.8632H32.8268V34.1368H26.772V54.8588L38.7833 33.9971ZM95.511 33.5953H88.1422V33.8632H91.6153V58.2824H88.1422V58.556H99.0304V58.2824H95.511V33.5953Z" fill="url(#paint0_linear_9_439)"/>
<path d="M40.7586 16.4633V15H36.8672V9.84037H36.9105C37.055 9.84037 37.1887 9.88012 37.3116 9.95961C37.4344 10.0319 37.4959 10.18 37.4959 10.404V14.4905H40.119V9.84037H40.1624C40.3069 9.84037 40.4406 9.88012 40.5635 9.95961C40.6863 10.0319 40.7477 10.18 40.7477 10.404V14.4905H41.3547V16.4633H40.7586ZM42.4775 15V9.87289H44.6779C45.2199 9.87289 45.6354 9.99213 45.9245 10.2306C46.2135 10.4618 46.358 10.7762 46.358 11.1736C46.358 11.4699 46.2785 11.7156 46.1196 11.9107C45.9606 12.0986 45.733 12.2431 45.4367 12.3443C45.7691 12.431 46.0256 12.5756 46.2063 12.7779C46.3869 12.9802 46.4773 13.244 46.4773 13.5692C46.4773 13.7643 46.4411 13.9486 46.3689 14.122C46.3038 14.2954 46.1991 14.4472 46.0545 14.5773C45.9172 14.7073 45.7366 14.8121 45.5126 14.8916C45.2958 14.9639 45.0356 15 44.7321 15H42.4775ZM43.1062 14.5014H44.7104C45.079 14.5014 45.3608 14.4219 45.5559 14.2629C45.7583 14.1039 45.8594 13.8727 45.8594 13.5692C45.8594 13.2512 45.7655 13.0164 45.5776 12.8646C45.3969 12.7056 45.1079 12.6261 44.7104 12.6261H43.1062V14.5014ZM43.1062 12.1275H44.5478C44.6996 12.1275 44.8441 12.1167 44.9814 12.095C45.1259 12.0661 45.256 12.0155 45.3716 11.9432C45.4873 11.871 45.5776 11.7734 45.6426 11.6506C45.7149 11.5277 45.751 11.3724 45.751 11.1845C45.751 10.9316 45.6607 10.7328 45.48 10.5883C45.2994 10.4438 45.032 10.3715 44.6779 10.3715H43.1062V12.1275ZM48.1181 12.5611C48.1253 12.8646 48.1651 13.1464 48.2373 13.4066C48.3096 13.6595 48.4144 13.8799 48.5517 14.0678C48.6962 14.2485 48.8769 14.3894 49.0937 14.4905C49.3105 14.5917 49.567 14.6423 49.8633 14.6423C50.0873 14.6423 50.2824 14.6206 50.4486 14.5773C50.6148 14.5267 50.7557 14.4689 50.8714 14.4038C50.9942 14.3316 51.0918 14.2593 51.164 14.187C51.2435 14.1148 51.3013 14.0533 51.3375 14.0028C51.4097 14.0823 51.4675 14.1581 51.5109 14.2304C51.5542 14.2954 51.5759 14.346 51.5759 14.3821C51.5759 14.4472 51.5326 14.5231 51.4459 14.6098C51.3664 14.6965 51.2507 14.7832 51.099 14.8699C50.9472 14.9494 50.763 15.0181 50.5462 15.0759C50.3366 15.1337 50.1017 15.1626 49.8416 15.1626C49.4947 15.1626 49.1732 15.1084 48.8769 15C48.5878 14.8988 48.3349 14.7362 48.1181 14.5122C47.9085 14.2882 47.746 14.0028 47.6303 13.6559C47.5147 13.309 47.4569 12.8971 47.4569 12.4202C47.4569 11.9577 47.5183 11.5602 47.6412 11.2278C47.7712 10.8954 47.9411 10.6244 48.1506 10.4149C48.3674 10.1981 48.6095 10.0391 48.8769 9.93793C49.1515 9.83676 49.4333 9.78618 49.7224 9.78618C50.0765 9.78618 50.38 9.8476 50.6329 9.97045C50.8858 10.0933 51.0918 10.2595 51.2507 10.4691C51.4097 10.6714 51.5253 10.9063 51.5976 11.1736C51.6699 11.441 51.706 11.7192 51.706 12.0083C51.706 12.1817 51.6952 12.366 51.6735 12.5611H48.1181ZM51.0881 12.095C51.0881 11.8493 51.0665 11.6181 51.0231 11.4013C50.9798 11.1845 50.9039 10.9966 50.7955 10.8376C50.6871 10.6714 50.5389 10.5413 50.3511 10.4474C50.1704 10.3534 49.9428 10.3065 49.6682 10.3065C49.2129 10.3065 48.8444 10.4582 48.5625 10.7617C48.2879 11.0652 48.1434 11.5097 48.129 12.095H51.0881ZM54.2324 15V10.3824H52.4547C52.4475 10.3462 52.4439 10.3137 52.4439 10.2848C52.4439 10.0102 52.6101 9.87289 52.9425 9.87289H56.6388C56.646 9.90902 56.6496 9.94154 56.6496 9.97045C56.6496 10.245 56.4834 10.3824 56.151 10.3824H54.8611V15H54.2324ZM59.4935 14.6423C59.8332 14.6423 60.1078 14.5773 60.3173 14.4472C60.5341 14.3171 60.704 14.1473 60.8268 13.9377C60.9497 13.7282 61.0328 13.4969 61.0761 13.244C61.1195 12.9838 61.1412 12.7237 61.1412 12.4635C61.1412 12.2034 61.1195 11.9469 61.0761 11.6939C61.0328 11.441 60.9497 11.2134 60.8268 11.011C60.7112 10.8015 60.545 10.6353 60.3282 10.5124C60.1186 10.3824 59.8476 10.3173 59.5152 10.3173C59.1973 10.3173 58.9299 10.3824 58.7131 10.5124C58.5035 10.6353 58.3337 10.8015 58.2036 11.011C58.0808 11.2134 57.9905 11.441 57.9326 11.6939C57.8821 11.9469 57.8568 12.2034 57.8568 12.4635C57.8568 12.7237 57.8784 12.9838 57.9218 13.244C57.9724 13.4969 58.0591 13.7282 58.182 13.9377C58.3048 14.1473 58.471 14.3171 58.6806 14.4472C58.8974 14.5773 59.1684 14.6423 59.4935 14.6423ZM59.4935 15.1626C59.0816 15.1626 58.7275 15.0903 58.4313 14.9458C58.1422 14.8013 57.9037 14.6062 57.7159 14.3605C57.5352 14.1148 57.4015 13.8329 57.3148 13.515C57.2353 13.1898 57.1956 12.8502 57.1956 12.4961C57.1956 12.1275 57.2425 11.7807 57.3365 11.4555C57.4376 11.1303 57.5858 10.8448 57.7809 10.5991C57.976 10.3462 58.2181 10.1475 58.5071 10.003C58.8034 9.85844 59.1467 9.78618 59.5369 9.78618C59.9488 9.78618 60.2993 9.85844 60.5883 10.003C60.8774 10.1475 61.1086 10.3426 61.2821 10.5883C61.4627 10.834 61.5928 11.1194 61.6723 11.4446C61.759 11.7698 61.8024 12.1095 61.8024 12.4635C61.8024 12.8176 61.759 13.1573 61.6723 13.4825C61.5928 13.8076 61.4591 14.0967 61.2712 14.3496C61.0906 14.5953 60.8521 14.794 60.5558 14.9458C60.2668 15.0903 59.9127 15.1626 59.4935 15.1626ZM66.2808 15V12.5936C66.1146 12.7454 65.8942 12.8791 65.6196 12.9947C65.345 13.1031 65.0198 13.1573 64.644 13.1573C64.0659 13.1573 63.6468 13.0055 63.3866 12.702C63.1265 12.3985 62.9964 11.918 62.9964 11.2604V9.84037H63.0398C63.1843 9.84037 63.318 9.88012 63.4408 9.95961C63.5637 10.0319 63.6251 10.18 63.6251 10.404V11.2712C63.6251 11.5024 63.6396 11.7048 63.6685 11.8782C63.7046 12.0516 63.766 12.1962 63.8527 12.3118C63.9467 12.4202 64.0695 12.5033 64.2213 12.5611C64.373 12.6189 64.5681 12.6478 64.8066 12.6478C64.9656 12.6478 65.1318 12.6298 65.3052 12.5936C65.4787 12.5575 65.6376 12.5069 65.7822 12.4419C65.9267 12.3768 66.0459 12.3046 66.1399 12.2251C66.2338 12.1384 66.2808 12.048 66.2808 11.9541V9.84037H66.3242C66.4687 9.84037 66.6024 9.88012 66.7252 9.95961C66.8481 10.0319 66.9095 10.18 66.9095 10.404V15H66.2808ZM72.0918 15V12.5828H69.2735V15H68.6448V9.84037H68.6882C68.8327 9.84037 68.9664 9.88012 69.0893 9.95961C69.2121 10.0319 69.2735 10.18 69.2735 10.404V12.0733H72.0918V9.84037H72.1352C72.2797 9.84037 72.4134 9.88012 72.5362 9.95961C72.6591 10.0319 72.7205 10.18 72.7205 10.404V15H72.0918ZM78.5861 15C78.4416 15.0361 78.3115 15.0542 78.1959 15.0542C77.9791 15.0542 77.7912 15.0036 77.6323 14.9024C77.4733 14.794 77.3866 14.617 77.3721 14.3713C77.1626 14.5809 76.9132 14.7543 76.6242 14.8916C76.3424 15.0289 76.0063 15.0976 75.6161 15.0976C75.4499 15.0976 75.2729 15.0759 75.085 15.0325C74.9043 14.9964 74.7345 14.9241 74.5755 14.8157C74.4165 14.7001 74.2828 14.5484 74.1744 14.3605C74.0733 14.1654 74.0227 13.916 74.0227 13.6125C74.0227 13.244 74.1202 12.9441 74.3154 12.7129C74.5105 12.4744 74.7526 12.2901 75.0416 12.16C75.3307 12.0227 75.6378 11.9288 75.963 11.8782C76.2954 11.8276 76.5989 11.8023 76.8735 11.8023C76.9602 11.8023 77.0433 11.8059 77.1228 11.8132C77.2023 11.8132 77.2818 11.8168 77.3613 11.824V11.553C77.3613 11.3796 77.3432 11.217 77.3071 11.0652C77.2709 10.9135 77.2059 10.7834 77.112 10.675C77.0252 10.5666 76.8988 10.4799 76.7326 10.4149C76.5736 10.3498 76.364 10.3173 76.1039 10.3173C75.757 10.3173 75.4571 10.3643 75.2042 10.4582C74.9513 10.5522 74.7526 10.657 74.608 10.7726H74.5105C74.4093 10.628 74.3587 10.5088 74.3587 10.4149C74.3587 10.3571 74.384 10.3065 74.4346 10.2631C74.4924 10.2125 74.5611 10.1656 74.6405 10.1222C74.8284 10.021 75.0633 9.94154 75.3451 9.88373C75.6269 9.81869 75.8979 9.78618 76.1581 9.78618C76.5122 9.78618 76.8048 9.82953 77.0361 9.91625C77.2746 9.99574 77.4624 10.115 77.5997 10.274C77.7443 10.4257 77.8454 10.6172 77.9033 10.8485C77.9611 11.0797 77.99 11.3471 77.99 11.6506V13.8618C77.99 14.0642 78.0044 14.2232 78.0333 14.3388C78.0622 14.4544 78.102 14.5447 78.1526 14.6098C78.2031 14.6676 78.2646 14.7073 78.3368 14.729C78.4091 14.7435 78.4922 14.7543 78.5861 14.7615V15ZM77.3721 12.2684C77.3288 12.2612 77.2818 12.2576 77.2312 12.2576C77.1878 12.2576 77.1409 12.2576 77.0903 12.2576C76.8085 12.2576 76.523 12.2757 76.234 12.3118C75.9521 12.3479 75.692 12.4166 75.4535 12.5177C75.2223 12.6117 75.0344 12.7454 74.8899 12.9188C74.7453 13.0922 74.6731 13.3163 74.6731 13.5909C74.6731 13.7137 74.6875 13.8366 74.7164 13.9594C74.7526 14.075 74.8104 14.1798 74.8899 14.2738C74.9693 14.3677 75.0741 14.4436 75.2042 14.5014C75.3415 14.5592 75.5149 14.5881 75.7245 14.5881C75.9485 14.5881 76.1581 14.5556 76.3532 14.4905C76.5555 14.4183 76.7326 14.3388 76.8843 14.2521C77.0361 14.1581 77.1553 14.0606 77.242 13.9594C77.3288 13.8582 77.3721 13.7751 77.3721 13.7101V12.2684ZM82.6737 15V12.8646H81.5789C81.326 12.8646 81.1236 12.926 80.9719 13.0489C80.8201 13.1717 80.6936 13.3488 80.5925 13.58L80.0722 14.7399C80.0071 14.8844 79.9313 14.9783 79.8445 15.0217C79.7651 15.0723 79.6747 15.0976 79.5736 15.0976C79.5157 15.0976 79.4652 15.0903 79.4218 15.0759C79.3784 15.0687 79.3279 15.0542 79.2701 15.0325L79.9529 13.5692C80.0108 13.4536 80.0613 13.356 80.1047 13.2765C80.1481 13.1898 80.195 13.1139 80.2456 13.0489C80.2962 12.9838 80.3504 12.9296 80.4082 12.8863C80.4732 12.8357 80.5491 12.7887 80.6358 12.7454C80.2962 12.6659 80.0288 12.5069 79.8337 12.2684C79.6458 12.03 79.5519 11.7265 79.5519 11.3579C79.5519 11.1628 79.588 10.9749 79.6603 10.7943C79.7325 10.6136 79.8409 10.4546 79.9855 10.3173C80.13 10.18 80.3106 10.0716 80.5274 9.99213C80.7442 9.91264 81.0008 9.87289 81.297 9.87289H83.3024V15H82.6737ZM82.6737 10.3824H81.3187C80.9502 10.3824 80.6647 10.4691 80.4624 10.6425C80.2673 10.8159 80.1697 11.0544 80.1697 11.3579C80.1697 12.0372 80.5708 12.3768 81.3729 12.3768H82.6737V10.3824ZM91.591 15L91.2983 10.7184L89.7808 13.7751H89.3147L87.8839 10.8593L87.5912 15H87.0059L87.3961 9.88373C87.4322 9.86928 87.4756 9.85844 87.5262 9.85121C87.584 9.84399 87.6418 9.84037 87.6996 9.84037C87.873 9.84037 88.0031 9.9307 88.0898 10.1114L89.5531 13.2006L91.049 10.1222C91.1068 9.99935 91.1791 9.92348 91.2658 9.89457C91.3525 9.85844 91.4284 9.84037 91.4934 9.84037C91.5512 9.84037 91.609 9.84399 91.6669 9.85121C91.7247 9.85844 91.7716 9.86928 91.8078 9.88373L92.1763 15H91.591ZM97.8306 15C97.6861 15.0361 97.556 15.0542 97.4404 15.0542C97.2236 15.0542 97.0357 15.0036 96.8767 14.9024C96.7177 14.794 96.631 14.617 96.6166 14.3713C96.407 14.5809 96.1577 14.7543 95.8686 14.8916C95.5868 15.0289 95.2508 15.0976 94.8605 15.0976C94.6943 15.0976 94.5173 15.0759 94.3294 15.0325C94.1487 14.9964 93.9789 14.9241 93.8199 14.8157C93.661 14.7001 93.5273 14.5484 93.4189 14.3605C93.3177 14.1654 93.2671 13.916 93.2671 13.6125C93.2671 13.244 93.3647 12.9441 93.5598 12.7129C93.7549 12.4744 93.997 12.2901 94.286 12.16C94.5751 12.0227 94.8822 11.9288 95.2074 11.8782C95.5398 11.8276 95.8433 11.8023 96.1179 11.8023C96.2047 11.8023 96.2878 11.8059 96.3672 11.8132C96.4467 11.8132 96.5262 11.8168 96.6057 11.824V11.553C96.6057 11.3796 96.5876 11.217 96.5515 11.0652C96.5154 10.9135 96.4503 10.7834 96.3564 10.675C96.2697 10.5666 96.1432 10.4799 95.977 10.4149C95.818 10.3498 95.6085 10.3173 95.3483 10.3173C95.0015 10.3173 94.7016 10.3643 94.4486 10.4582C94.1957 10.5522 93.997 10.657 93.8525 10.7726H93.7549C93.6537 10.628 93.6032 10.5088 93.6032 10.4149C93.6032 10.3571 93.6284 10.3065 93.679 10.2631C93.7368 10.2125 93.8055 10.1656 93.885 10.1222C94.0729 10.021 94.3077 9.94154 94.5896 9.88373C94.8714 9.81869 95.1424 9.78618 95.4025 9.78618C95.7566 9.78618 96.0493 9.82953 96.2805 9.91625C96.519 9.99574 96.7069 10.115 96.8442 10.274C96.9887 10.4257 97.0899 10.6172 97.1477 10.8485C97.2055 11.0797 97.2344 11.3471 97.2344 11.6506V13.8618C97.2344 14.0642 97.2489 14.2232 97.2778 14.3388C97.3067 14.4544 97.3464 14.5447 97.397 14.6098C97.4476 14.6676 97.509 14.7073 97.5813 14.729C97.6535 14.7435 97.7366 14.7543 97.8306 14.7615V15ZM96.6166 12.2684C96.5732 12.2612 96.5262 12.2576 96.4756 12.2576C96.4323 12.2576 96.3853 12.2576 96.3347 12.2576C96.0529 12.2576 95.7675 12.2757 95.4784 12.3118C95.1966 12.3479 94.9364 12.4166 94.698 12.5177C94.4667 12.6117 94.2788 12.7454 94.1343 12.9188C93.9898 13.0922 93.9175 13.3163 93.9175 13.5909C93.9175 13.7137 93.932 13.8366 93.9609 13.9594C93.997 14.075 94.0548 14.1798 94.1343 14.2738C94.2138 14.3677 94.3186 14.4436 94.4486 14.5014C94.5859 14.5592 94.7594 14.5881 94.9689 14.5881C95.193 14.5881 95.4025 14.5556 95.5976 14.4905C95.8 14.4183 95.977 14.3388 96.1288 14.2521C96.2805 14.1581 96.3998 14.0606 96.4865 13.9594C96.5732 13.8582 96.6166 13.7751 96.6166 13.7101V12.2684ZM102.441 10.9785C102.296 10.7762 102.112 10.6172 101.888 10.5016C101.671 10.3787 101.4 10.3173 101.075 10.3173C100.772 10.3173 100.512 10.3715 100.295 10.4799C100.078 10.5883 99.9009 10.7401 99.7636 10.9352C99.6263 11.1231 99.5251 11.3471 99.4601 11.6072C99.395 11.8674 99.3625 12.1528 99.3625 12.4635C99.3625 12.7743 99.395 13.0633 99.4601 13.3307C99.5251 13.5981 99.6263 13.8293 99.7636 14.0244C99.9081 14.2196 100.089 14.3713 100.306 14.4797C100.522 14.5881 100.786 14.6423 101.097 14.6423C101.328 14.6423 101.527 14.6098 101.693 14.5447C101.859 14.4797 102 14.4074 102.116 14.3279C102.231 14.2485 102.343 14.1437 102.452 14.0136C102.495 14.0497 102.546 14.1039 102.604 14.1762C102.669 14.2412 102.701 14.3063 102.701 14.3713C102.701 14.4508 102.636 14.5484 102.506 14.664C102.383 14.7724 102.199 14.8844 101.953 15C101.707 15.1084 101.4 15.1626 101.032 15.1626C100.815 15.1626 100.573 15.1337 100.306 15.0759C100.038 15.0181 99.7853 14.8952 99.5468 14.7073C99.3083 14.5122 99.106 14.2376 98.9398 13.8835C98.7808 13.5294 98.7013 13.0561 98.7013 12.4635C98.7013 11.8999 98.788 11.4446 98.9615 11.0978C99.1349 10.7509 99.3408 10.4799 99.5793 10.2848C99.825 10.0897 100.082 9.95961 100.349 9.89457C100.624 9.82231 100.858 9.78618 101.053 9.78618C101.422 9.78618 101.726 9.83676 101.964 9.93793C102.202 10.0391 102.387 10.1439 102.517 10.2523C102.596 10.3173 102.647 10.3751 102.669 10.4257C102.697 10.4763 102.712 10.5269 102.712 10.5775C102.712 10.6353 102.694 10.7003 102.658 10.7726C102.622 10.8376 102.582 10.9063 102.539 10.9785H102.441ZM105.212 15V10.3824H103.434C103.427 10.3462 103.424 10.3137 103.424 10.2848C103.424 10.0102 103.59 9.87289 103.922 9.87289H107.619C107.626 9.90902 107.629 9.94154 107.629 9.97045C107.629 10.245 107.463 10.3824 107.131 10.3824H105.841V15H105.212ZM108.837 12.5611C108.844 12.8646 108.884 13.1464 108.956 13.4066C109.028 13.6595 109.133 13.8799 109.27 14.0678C109.415 14.2485 109.595 14.3894 109.812 14.4905C110.029 14.5917 110.285 14.6423 110.582 14.6423C110.806 14.6423 111.001 14.6206 111.167 14.5773C111.333 14.5267 111.474 14.4689 111.59 14.4038C111.713 14.3316 111.81 14.2593 111.882 14.187C111.962 14.1148 112.02 14.0533 112.056 14.0028C112.128 14.0823 112.186 14.1581 112.229 14.2304C112.273 14.2954 112.294 14.346 112.294 14.3821C112.294 14.4472 112.251 14.5231 112.164 14.6098C112.085 14.6965 111.969 14.7832 111.817 14.8699C111.666 14.9494 111.481 15.0181 111.265 15.0759C111.055 15.1337 110.82 15.1626 110.56 15.1626C110.213 15.1626 109.892 15.1084 109.595 15C109.306 14.8988 109.053 14.7362 108.837 14.5122C108.627 14.2882 108.464 14.0028 108.349 13.6559C108.233 13.309 108.175 12.8971 108.175 12.4202C108.175 11.9577 108.237 11.5602 108.36 11.2278C108.49 10.8954 108.659 10.6244 108.869 10.4149C109.086 10.1981 109.328 10.0391 109.595 9.93793C109.87 9.83676 110.152 9.78618 110.441 9.78618C110.795 9.78618 111.098 9.8476 111.351 9.97045C111.604 10.0933 111.81 10.2595 111.969 10.4691C112.128 10.6714 112.244 10.9063 112.316 11.1736C112.388 11.441 112.424 11.7192 112.424 12.0083C112.424 12.1817 112.414 12.366 112.392 12.5611H108.837ZM111.807 12.095C111.807 11.8493 111.785 11.6181 111.742 11.4013C111.698 11.1845 111.622 10.9966 111.514 10.8376C111.406 10.6714 111.257 10.5413 111.069 10.4474C110.889 10.3534 110.661 10.3065 110.387 10.3065C109.931 10.3065 109.563 10.4582 109.281 10.7617C109.006 11.0652 108.862 11.5097 108.847 12.095H111.807ZM113.834 17.363V9.87289H113.878C114.022 9.87289 114.152 9.90902 114.268 9.98129C114.391 10.0536 114.452 10.1981 114.452 10.4149C114.503 10.3643 114.575 10.3029 114.669 10.2306C114.763 10.1583 114.875 10.0897 115.005 10.0246C115.135 9.95961 115.283 9.90541 115.449 9.86205C115.616 9.81147 115.8 9.78618 116.002 9.78618C116.299 9.78618 116.573 9.83315 116.826 9.92709C117.086 10.021 117.31 10.1728 117.498 10.3824C117.693 10.5919 117.845 10.8629 117.953 11.1953C118.062 11.5277 118.116 11.9324 118.116 12.4093C118.116 12.9441 118.047 13.3885 117.91 13.7426C117.78 14.0967 117.606 14.3785 117.39 14.5881C117.18 14.7977 116.945 14.9458 116.685 15.0325C116.425 15.1192 116.168 15.1626 115.916 15.1626C115.684 15.1626 115.482 15.1373 115.309 15.0867C115.135 15.0361 114.987 14.9783 114.864 14.9133C114.748 14.8482 114.655 14.7832 114.582 14.7182C114.517 14.6531 114.474 14.6098 114.452 14.5881V17.363H113.834ZM114.452 14.0136C114.496 14.0642 114.557 14.1256 114.636 14.1979C114.716 14.2701 114.814 14.3388 114.929 14.4038C115.045 14.4689 115.175 14.5267 115.319 14.5773C115.471 14.6206 115.637 14.6423 115.818 14.6423C116.338 14.6423 116.739 14.4652 117.021 14.1112C117.31 13.7571 117.455 13.2151 117.455 12.4852C117.455 12.1817 117.429 11.8999 117.379 11.6397C117.328 11.3796 117.242 11.152 117.119 10.9568C116.996 10.7617 116.833 10.61 116.631 10.5016C116.429 10.386 116.179 10.3282 115.883 10.3282C115.558 10.3282 115.28 10.386 115.048 10.5016C114.817 10.61 114.647 10.7364 114.539 10.881C114.481 10.9605 114.452 11.04 114.452 11.1194V14.0136ZM123.051 10.9785C122.906 10.7762 122.722 10.6172 122.498 10.5016C122.281 10.3787 122.01 10.3173 121.685 10.3173C121.382 10.3173 121.121 10.3715 120.905 10.4799C120.688 10.5883 120.511 10.7401 120.374 10.9352C120.236 11.1231 120.135 11.3471 120.07 11.6072C120.005 11.8674 119.972 12.1528 119.972 12.4635C119.972 12.7743 120.005 13.0633 120.07 13.3307C120.135 13.5981 120.236 13.8293 120.374 14.0244C120.518 14.2196 120.699 14.3713 120.916 14.4797C121.132 14.5881 121.396 14.6423 121.707 14.6423C121.938 14.6423 122.137 14.6098 122.303 14.5447C122.469 14.4797 122.61 14.4074 122.726 14.3279C122.841 14.2485 122.953 14.1437 123.062 14.0136C123.105 14.0497 123.156 14.1039 123.214 14.1762C123.279 14.2412 123.311 14.3063 123.311 14.3713C123.311 14.4508 123.246 14.5484 123.116 14.664C122.993 14.7724 122.809 14.8844 122.563 15C122.317 15.1084 122.01 15.1626 121.642 15.1626C121.425 15.1626 121.183 15.1337 120.916 15.0759C120.648 15.0181 120.395 14.8952 120.157 14.7073C119.918 14.5122 119.716 14.2376 119.55 13.8835C119.391 13.5294 119.311 13.0561 119.311 12.4635C119.311 11.8999 119.398 11.4446 119.571 11.0978C119.745 10.7509 119.951 10.4799 120.189 10.2848C120.435 10.0897 120.692 9.95961 120.959 9.89457C121.233 9.82231 121.468 9.78618 121.663 9.78618C122.032 9.78618 122.336 9.83676 122.574 9.93793C122.812 10.0391 122.997 10.1439 123.127 10.2523C123.206 10.3173 123.257 10.3751 123.279 10.4257C123.307 10.4763 123.322 10.5269 123.322 10.5775C123.322 10.6353 123.304 10.7003 123.268 10.7726C123.232 10.8376 123.192 10.9063 123.148 10.9785H123.051ZM124.515 15V9.84037H124.558C124.703 9.84037 124.837 9.88012 124.96 9.95961C125.082 10.0319 125.144 10.18 125.144 10.404V15H124.515ZM126.358 13.1681C126.235 13.0091 126.101 12.8754 125.957 12.7671C125.819 12.6587 125.646 12.5864 125.436 12.5503V12.1492C125.66 12.1131 125.845 12.0408 125.989 11.9324C126.134 11.8168 126.26 11.6867 126.369 11.5422L127.171 10.404C127.438 10.0283 127.745 9.84037 128.092 9.84037C128.237 9.84037 128.338 9.87289 128.396 9.93793C128.453 10.003 128.482 10.1077 128.482 10.2523C128.273 10.2523 128.107 10.2884 127.984 10.3607C127.861 10.4329 127.742 10.5522 127.626 10.7184L126.867 11.7698C126.788 11.871 126.683 11.9722 126.553 12.0733C126.43 12.1673 126.278 12.2395 126.098 12.2901C126.271 12.3335 126.419 12.4057 126.542 12.5069C126.672 12.6008 126.791 12.7165 126.9 12.8538L128.591 15.0325C128.482 15.0759 128.37 15.0976 128.255 15.0976C128.11 15.0976 127.987 15.065 127.886 15C127.792 14.9422 127.695 14.8519 127.594 14.729L126.358 13.1681ZM133.715 15C133.571 15.0361 133.441 15.0542 133.325 15.0542C133.108 15.0542 132.921 15.0036 132.762 14.9024C132.603 14.794 132.516 14.617 132.501 14.3713C132.292 14.5809 132.043 14.7543 131.753 14.8916C131.472 15.0289 131.136 15.0976 130.745 15.0976C130.579 15.0976 130.402 15.0759 130.214 15.0325C130.034 14.9964 129.864 14.9241 129.705 14.8157C129.546 14.7001 129.412 14.5484 129.304 14.3605C129.203 14.1654 129.152 13.916 129.152 13.6125C129.152 13.244 129.25 12.9441 129.445 12.7129C129.64 12.4744 129.882 12.2901 130.171 12.16C130.46 12.0227 130.767 11.9288 131.092 11.8782C131.425 11.8276 131.728 11.8023 132.003 11.8023C132.089 11.8023 132.173 11.8059 132.252 11.8132C132.332 11.8132 132.411 11.8168 132.491 11.824V11.553C132.491 11.3796 132.472 11.217 132.436 11.0652C132.4 10.9135 132.335 10.7834 132.241 10.675C132.155 10.5666 132.028 10.4799 131.862 10.4149C131.703 10.3498 131.493 10.3173 131.233 10.3173C130.886 10.3173 130.586 10.3643 130.333 10.4582C130.081 10.5522 129.882 10.657 129.737 10.7726H129.64C129.539 10.628 129.488 10.5088 129.488 10.4149C129.488 10.3571 129.513 10.3065 129.564 10.2631C129.622 10.2125 129.69 10.1656 129.77 10.1222C129.958 10.021 130.193 9.94154 130.474 9.88373C130.756 9.81869 131.027 9.78618 131.287 9.78618C131.641 9.78618 131.934 9.82953 132.165 9.91625C132.404 9.99574 132.592 10.115 132.729 10.274C132.874 10.4257 132.975 10.6172 133.033 10.8485C133.09 11.0797 133.119 11.3471 133.119 11.6506V13.8618C133.119 14.0642 133.134 14.2232 133.163 14.3388C133.192 14.4544 133.231 14.5447 133.282 14.6098C133.332 14.6676 133.394 14.7073 133.466 14.729C133.538 14.7435 133.621 14.7543 133.715 14.7615V15ZM132.501 12.2684C132.458 12.2612 132.411 12.2576 132.36 12.2576C132.317 12.2576 132.27 12.2576 132.22 12.2576C131.938 12.2576 131.652 12.2757 131.363 12.3118C131.081 12.3479 130.821 12.4166 130.583 12.5177C130.352 12.6117 130.164 12.7454 130.019 12.9188C129.875 13.0922 129.802 13.3163 129.802 13.5909C129.802 13.7137 129.817 13.8366 129.846 13.9594C129.882 14.075 129.94 14.1798 130.019 14.2738C130.099 14.3677 130.203 14.4436 130.333 14.5014C130.471 14.5592 130.644 14.5881 130.854 14.5881C131.078 14.5881 131.287 14.5556 131.482 14.4905C131.685 14.4183 131.862 14.3388 132.014 14.2521C132.165 14.1581 132.285 14.0606 132.371 13.9594C132.458 13.8582 132.501 13.7751 132.501 13.7101V12.2684ZM137.803 15V12.8646H136.708C136.455 12.8646 136.253 12.926 136.101 13.0489C135.949 13.1717 135.823 13.3488 135.722 13.58L135.201 14.7399C135.136 14.8844 135.061 14.9783 134.974 15.0217C134.894 15.0723 134.804 15.0976 134.703 15.0976C134.645 15.0976 134.594 15.0903 134.551 15.0759C134.508 15.0687 134.457 15.0542 134.399 15.0325L135.082 13.5692C135.14 13.4536 135.191 13.356 135.234 13.2765C135.277 13.1898 135.324 13.1139 135.375 13.0489C135.425 12.9838 135.48 12.9296 135.537 12.8863C135.603 12.8357 135.678 12.7887 135.765 12.7454C135.425 12.6659 135.158 12.5069 134.963 12.2684C134.775 12.03 134.681 11.7265 134.681 11.3579C134.681 11.1628 134.717 10.9749 134.79 10.7943C134.862 10.6136 134.97 10.4546 135.115 10.3173C135.259 10.18 135.44 10.0716 135.657 9.99213C135.874 9.91264 136.13 9.87289 136.426 9.87289H138.432V15H137.803ZM137.803 10.3824H136.448C136.079 10.3824 135.794 10.4691 135.592 10.6425C135.397 10.8159 135.299 11.0544 135.299 11.3579C135.299 12.0372 135.7 12.3768 136.502 12.3768H137.803V10.3824Z" fill="black"/>
</g>
<defs>
<linearGradient id="paint0_linear_9_439" x1="19.2006" y1="67.4527" x2="128.62" y2="4.64601" gradientUnits="userSpaceOnUse">
<stop stop-color="#97BF0D"/>
<stop offset="0.37" stop-color="#508B1D"/>
<stop offset="0.71" stop-color="#16612B"/>
<stop offset="0.87" stop-color="#005030"/>
<stop offset="1" stop-color="#007242"/>
</linearGradient>
<clipPath id="clip0_9_439">
<rect width="151" height="68" fill="white"/>
</clipPath>
</defs>
</svg>
