<svg width="306" height="138" viewBox="0 0 306 138" fill="none" xmlns="http://www.w3.org/2000/svg">
<g clip-path="url(#clip0_9_537)">
<path d="M252.049 67.6479H262.852V69.8069H252.049V108.014C252.049 112.049 251.766 118.591 256.492 118.591C258.082 118.591 259.411 117.762 260.478 116.65V117.501C259.127 118.853 257.254 120.009 254.75 120.009C248.193 120.009 244.12 116.846 244.12 108.014V68.7819L252.07 54.9994V67.6479H252.049ZM193.523 118.351H200.646V118.896H178.56V118.351H185.573V68.9564H178.56V68.4112H193.523V118.373V118.351ZM235.735 104.721C235.735 113.335 229.549 119.987 219.094 119.987C215.892 119.987 211.602 119.245 208.966 118.068V114.949C211.362 117.522 215.457 119.442 219.094 119.442C225.846 119.442 229.723 115.734 229.723 109.083C229.723 102.431 223.167 101.014 215.783 97.1975C206.635 92.2908 204.24 88.0382 204.24 80.9507C204.24 73.8632 208.465 69 214.999 67.7352C215.065 67.7352 215.849 67.5825 216.176 67.5607C216.306 67.5607 216.437 67.5389 216.568 67.5171C216.807 67.4953 217.069 67.4735 217.33 67.4735C217.526 67.4735 218.31 67.4298 218.528 67.4298C219.508 67.4298 226.282 67.6479 226.282 67.6479V69.8069C226.282 69.8069 220.51 67.8224 216.785 68.0187C216.197 68.0405 215.065 68.3022 215.021 68.324C210.948 69.567 209.293 73.2525 209.293 76.8072C209.293 81.3869 210.861 83.6767 219.726 87.7111C232.947 93.8173 235.713 98.0699 235.713 104.721M54.1691 112.005V70.0904H66.6932V67.9314H54.0602C53.6246 56.068 51.5772 42.1327 60.9212 42.1327C61.9449 42.1327 63.0993 42.3726 63.8398 42.7652L78.8033 68.7601L78.9558 69.0436L54.1691 112.049V112.005ZM46.132 112.856V125.918H46.1538L39.7719 137.019L16.2486 96.2162C16.9891 96.3688 17.7732 96.4561 18.6227 96.4561C27.2261 96.4561 32.9327 89.9355 33.3901 69.2835V25.1662V12.0815H33.3684L39.7502 1.00316L63.2518 41.8056C62.5112 41.653 61.7271 41.5657 60.8776 41.5657C52.2742 41.5657 46.5676 48.0863 46.1102 68.7165V112.834M1.19795 70.0904H25.4837C25.9411 81.9539 27.9667 95.8891 18.6227 95.8891C17.599 95.8891 16.4446 95.6492 15.704 95.2566L1.19795 70.0904ZM25.353 29.1789V67.9314H3.02755L25.353 29.1789ZM86.9058 42.5689H71.8552V43.1141H78.9776V68.0405L39.968 0.370733L39.7502 0L0.0653427 68.891L0 69.0218L39.5541 137.651L39.7719 138.022L78.9776 69.9814V118.373H71.8552V118.918H93.9411V118.373H86.9276V42.5471L86.9058 42.5689ZM170.893 67.6697H172.069V69.8287H171.067C168.301 69.8287 165.622 71.0499 163.901 73.2089C160.765 77.1561 159.066 83.524 159.066 89.7175V118.395H166.188V118.94H144.103V118.395H151.116V68.9564H144.103V68.4112H158.696V87.0787C159.066 81.0161 160.634 75.2589 163.792 71.3989C165.535 69.2617 168.17 67.6479 170.915 67.6479M118.466 119.463C107.467 119.463 105.441 104.307 105.441 93.7301C105.441 83.1533 107.467 67.8878 118.466 67.8878C129.466 67.8878 131.404 83.1533 131.404 93.7301C131.404 104.307 129.466 119.463 118.466 119.463ZM118.466 67.4298C105.529 67.4298 96.9468 79.7513 96.9468 93.7083C96.9468 107.665 105.55 119.987 118.466 119.987C131.382 119.987 139.899 107.665 139.899 93.7083C139.899 79.7513 131.317 67.4298 118.466 67.4298ZM193.959 58.4014C193.959 60.8221 191.977 62.8066 189.559 62.8066C187.142 62.8066 185.247 60.8221 185.247 58.4014C185.247 55.9807 187.229 54.0834 189.559 54.0834C191.89 54.0834 193.959 55.9807 193.959 58.4014ZM292.692 103.086C292.692 111.591 288.074 119.333 281.148 119.333C275.877 119.333 273.481 113.881 273.481 106.902C273.481 102.322 274.505 94.2535 282.542 92.5089C285.874 91.8546 290.035 91.4185 292.714 90.9823V103.086H292.692ZM303.408 118.351C300.359 118.351 300.642 114.208 300.642 109.301V88.1473C300.642 74.7355 295.741 67.4298 283.827 67.4298C282.847 67.4298 277.097 67.6479 277.097 67.6479V69.8069C277.097 69.8069 281.845 67.8224 285.548 68.0187C293.411 68.433 292.692 79.3587 292.692 89.8047V90.4589C289.817 90.8951 285.395 91.4403 282.172 91.9855C274.222 93.512 265.074 95.9109 265.074 107.033C265.074 117.283 273.024 120.009 280.32 120.009C287.617 120.009 291.407 114.12 292.692 107.796V109.432C292.692 117.064 295.741 120.009 300.642 120.009C303.038 120.009 304.758 119.114 306.044 117.828V117.086C305.303 117.871 304.41 118.351 303.43 118.351" fill="url(#paint0_linear_9_537)"/>
<path d="M88.082 34.3909V31.425H80.0884V20.9573H80.1755C80.4805 20.9573 80.7418 21.0227 81.0032 21.1972C81.2646 21.3498 81.3735 21.6551 81.3735 22.1131V30.4219H86.7534V20.9573H86.8405C87.1454 20.9573 87.4068 21.0227 87.6682 21.1972C87.9295 21.3498 88.0384 21.6551 88.0384 22.1131V30.4219H89.2799V34.4127H88.0602L88.082 34.3909Z" fill="url(#paint1_linear_9_537)"/>
<path d="M93.2005 30.4002H96.4894C97.2518 30.4002 97.8181 30.2475 98.2319 29.9204C98.6457 29.5933 98.8418 29.1353 98.8418 28.5029C98.8418 27.8704 98.6457 27.3689 98.2755 27.0636C97.9052 26.7582 97.2953 26.5838 96.4894 26.5838H93.2005V30.3783V30.4002ZM93.2005 25.5806H96.1627C96.4676 25.5806 96.7726 25.5588 97.0557 25.4934C97.3389 25.4498 97.6002 25.3407 97.8398 25.1881C98.0794 25.0354 98.2755 24.8392 98.4061 24.5993C98.5368 24.3376 98.624 24.0323 98.624 23.6615C98.624 23.16 98.4279 22.7456 98.0577 22.4621C97.6874 22.1786 97.1428 22.0259 96.4023 22.0259H93.1787V25.6024L93.2005 25.5806ZM91.9154 31.4033V21.001H96.4241C97.5349 21.001 98.3844 21.2409 98.9724 21.7206C99.5605 22.2004 99.8655 22.8328 99.8655 23.6397C99.8655 24.2503 99.713 24.7301 99.3863 25.1227C99.0596 25.5152 98.6022 25.8205 97.9923 26.0168C98.6675 26.1912 99.1903 26.4747 99.5605 26.8891C99.9308 27.3034 100.127 27.8268 100.127 28.5029C100.127 28.8954 100.061 29.2661 99.909 29.6151C99.7566 29.964 99.5605 30.2693 99.2556 30.531C98.9724 30.7927 98.6022 31.0108 98.1448 31.1634C97.6874 31.3161 97.1429 31.4033 96.533 31.4033H91.9154Z" fill="url(#paint2_linear_9_537)"/>
<path d="M109.863 25.5152C109.863 25.0136 109.819 24.5556 109.732 24.0977C109.645 23.6615 109.493 23.269 109.275 22.9419C109.057 22.6147 108.752 22.353 108.382 22.1568C108.012 21.9605 107.532 21.8733 106.966 21.8733C106.029 21.8733 105.289 22.1786 104.723 22.7892C104.156 23.3998 103.851 24.3157 103.83 25.4934H109.885L109.863 25.5152ZM103.786 26.4529C103.786 27.0635 103.873 27.6305 104.026 28.1539C104.178 28.6773 104.396 29.1135 104.679 29.4842C104.962 29.8549 105.332 30.1384 105.79 30.3565C106.225 30.5528 106.77 30.6618 107.38 30.6618C107.837 30.6618 108.229 30.6182 108.578 30.5092C108.926 30.4219 109.209 30.2911 109.449 30.1603C109.689 30.0294 109.885 29.8767 110.059 29.7241C110.211 29.5714 110.32 29.4624 110.407 29.3534C110.56 29.506 110.669 29.6587 110.756 29.8113C110.843 29.9422 110.887 30.0512 110.887 30.1384C110.887 30.2693 110.799 30.4219 110.625 30.5964C110.451 30.7709 110.211 30.9453 109.906 31.1198C109.602 31.2943 109.209 31.4251 108.774 31.556C108.338 31.665 107.859 31.7304 107.315 31.7304C106.596 31.7304 105.942 31.6214 105.354 31.4033C104.744 31.1852 104.222 30.8581 103.786 30.4001C103.35 29.9422 103.002 29.3752 102.762 28.6555C102.523 27.9577 102.392 27.1072 102.392 26.1476C102.392 25.1881 102.523 24.403 102.784 23.7269C103.045 23.0509 103.394 22.5057 103.83 22.0695C104.265 21.6334 104.766 21.3281 105.332 21.11C105.899 20.8919 106.465 20.8047 107.053 20.8047C107.772 20.8047 108.404 20.9355 108.926 21.1754C109.449 21.4153 109.863 21.7642 110.19 22.1786C110.516 22.5929 110.756 23.0727 110.908 23.6179C111.061 24.1631 111.126 24.7301 111.126 25.3189C111.126 25.6678 111.126 26.0386 111.061 26.4311H103.764L103.786 26.4529Z" fill="url(#paint3_linear_9_537)"/>
<path d="M116.593 31.4251V22.0259H112.934C112.934 22.0259 112.912 21.8951 112.912 21.8297C112.912 21.2845 113.261 21.001 113.936 21.001H121.516C121.516 21.001 121.537 21.1318 121.537 21.1972C121.537 21.7424 121.189 22.0259 120.514 22.0259H117.856V31.4251H116.571H116.593Z" fill="url(#paint4_linear_9_537)"/>
<path d="M127.701 30.6836C128.398 30.6836 128.965 30.5528 129.4 30.2911C129.836 30.0294 130.184 29.6805 130.424 29.2661C130.664 28.8518 130.838 28.372 130.925 27.8486C131.012 27.3252 131.056 26.8018 131.056 26.2785C131.056 25.7551 131.012 25.2317 130.925 24.7083C130.838 24.1849 130.664 23.7269 130.424 23.3126C130.184 22.8982 129.836 22.5493 129.4 22.3094C128.965 22.0477 128.398 21.9169 127.723 21.9169C127.048 21.9169 126.525 22.0477 126.09 22.3094C125.654 22.5711 125.306 22.8982 125.044 23.3126C124.783 23.7269 124.609 24.1849 124.5 24.7083C124.391 25.2317 124.325 25.7333 124.325 26.2785C124.325 26.8237 124.369 27.3252 124.478 27.8486C124.565 28.372 124.739 28.83 125.001 29.2661C125.24 29.7023 125.589 30.0294 126.024 30.2911C126.46 30.5528 127.004 30.6836 127.68 30.6836M127.68 31.7304C126.83 31.7304 126.111 31.5778 125.502 31.2943C124.892 31.0108 124.413 30.5964 124.02 30.0948C123.65 29.5932 123.367 29.0262 123.193 28.372C123.019 27.7178 122.931 27.0417 122.931 26.3003C122.931 25.5588 123.04 24.8391 123.236 24.1849C123.432 23.5307 123.737 22.9419 124.151 22.4403C124.543 21.9387 125.044 21.5243 125.654 21.2408C126.264 20.9355 126.961 20.8047 127.767 20.8047C128.616 20.8047 129.335 20.9573 129.923 21.2408C130.511 21.5243 130.99 21.9387 131.361 22.4185C131.731 22.92 131.992 23.5089 132.167 24.1631C132.341 24.8173 132.428 25.5152 132.428 26.2348C132.428 26.9545 132.341 27.6523 132.167 28.3066C131.992 28.9608 131.709 29.5496 131.339 30.0512C130.969 30.5528 130.468 30.9671 129.858 31.2725C129.248 31.5778 128.529 31.7304 127.658 31.7304" fill="url(#paint5_linear_9_537)"/>
<path d="M141.903 31.4252V26.5402C141.554 26.8456 141.097 27.1291 140.552 27.3471C139.986 27.5652 139.311 27.6961 138.548 27.6961C137.372 27.6961 136.501 27.3908 135.978 26.7801C135.455 26.1695 135.172 25.1882 135.172 23.8579V20.9792H135.259C135.564 20.9792 135.826 21.0665 136.087 21.2191C136.348 21.3718 136.457 21.6771 136.457 22.1351V23.9015C136.457 24.3813 136.479 24.7738 136.566 25.1445C136.632 25.4935 136.762 25.777 136.937 26.0169C137.111 26.2567 137.372 26.4094 137.677 26.5402C137.982 26.6493 138.396 26.7147 138.875 26.7147C139.202 26.7147 139.55 26.6711 139.899 26.6057C140.247 26.5402 140.574 26.4312 140.879 26.3004C141.184 26.1695 141.423 26.0169 141.619 25.8424C141.815 25.6679 141.903 25.4935 141.903 25.2972V21.0011H141.99C142.295 21.0011 142.556 21.0883 142.817 21.2409C143.079 21.3936 143.188 21.6989 143.188 22.1569V31.4906H141.903V31.4252Z" fill="url(#paint6_linear_9_537)"/>
<path d="M154.122 31.425V26.5183H148.328V31.425H147.043V20.9573H147.13C147.435 20.9573 147.696 21.0445 147.958 21.1972C148.219 21.3498 148.328 21.6551 148.328 22.1131V25.5151H154.122V20.9573H154.209C154.514 20.9573 154.775 21.0445 155.036 21.1972C155.298 21.3498 155.407 21.6551 155.407 22.1131V31.4468H154.122V31.425Z" fill="url(#paint7_linear_9_537)"/>
<path d="M165.23 25.8859C165.23 25.8859 165.056 25.8859 164.947 25.8859H164.642C164.054 25.8859 163.488 25.9295 162.899 25.995C162.311 26.0604 161.789 26.213 161.288 26.4093C160.808 26.6056 160.416 26.8891 160.133 27.238C159.828 27.5869 159.676 28.0449 159.676 28.6119C159.676 28.8736 159.719 29.1135 159.785 29.3534C159.85 29.5932 159.959 29.8113 160.133 30.0076C160.286 30.2039 160.504 30.3565 160.787 30.4656C161.048 30.5746 161.418 30.64 161.832 30.64C162.29 30.64 162.725 30.5746 163.139 30.4219C163.553 30.2911 163.901 30.1166 164.206 29.9422C164.511 29.7677 164.773 29.5714 164.947 29.3534C165.121 29.1353 165.208 28.9826 165.208 28.8518V25.9077L165.23 25.8859ZM167.735 31.4251C167.43 31.4905 167.168 31.5341 166.929 31.5341C166.471 31.5341 166.101 31.4251 165.753 31.207C165.426 30.9889 165.23 30.64 165.208 30.1384C164.773 30.5746 164.272 30.9235 163.684 31.1852C163.095 31.4687 162.398 31.5996 161.593 31.5996C161.244 31.5996 160.896 31.556 160.525 31.4687C160.155 31.3815 159.785 31.2288 159.48 31.0108C159.153 30.7927 158.892 30.4656 158.674 30.0948C158.456 29.7023 158.347 29.2007 158.347 28.5901C158.347 27.8486 158.543 27.238 158.935 26.7582C159.327 26.2785 159.828 25.9077 160.416 25.646C161.004 25.3843 161.636 25.1881 162.311 25.079C162.987 24.97 163.618 24.9264 164.163 24.9264C164.337 24.9264 164.511 24.9264 164.664 24.9264C164.838 24.9264 164.99 24.9264 165.165 24.9482V24.403C165.165 24.0541 165.121 23.7269 165.056 23.4216C164.99 23.1163 164.86 22.8546 164.664 22.6365C164.489 22.4185 164.228 22.244 163.88 22.1132C163.553 21.9823 163.117 21.9169 162.573 21.9169C161.854 21.9169 161.244 22.0041 160.721 22.2004C160.199 22.3967 159.807 22.5929 159.502 22.8328H159.306C159.088 22.5493 159.001 22.2876 159.001 22.1132C159.001 22.0041 159.066 21.8951 159.175 21.786C159.284 21.6988 159.414 21.5898 159.589 21.5025C159.981 21.2845 160.46 21.1318 161.048 21.001C161.636 20.8701 162.181 20.8047 162.725 20.8047C163.444 20.8047 164.054 20.8919 164.555 21.0664C165.034 21.2408 165.426 21.4807 165.709 21.786C165.992 22.0913 166.21 22.5057 166.319 22.9637C166.428 23.4216 166.493 23.9668 166.493 24.5993V29.0917C166.493 29.506 166.515 29.8331 166.58 30.0512C166.646 30.2911 166.733 30.4656 166.82 30.5964C166.929 30.7273 167.06 30.8145 167.19 30.8363C167.343 30.8799 167.517 30.9017 167.713 30.9235V31.4033L167.735 31.4251Z" fill="url(#paint8_linear_9_537)"/>
<path d="M176.404 22.0259H173.637C172.897 22.0259 172.309 22.2003 171.895 22.5493C171.481 22.8982 171.285 23.378 171.285 23.9886C171.285 25.3625 172.113 26.0603 173.746 26.0603H176.404V22.0041V22.0259ZM176.404 31.425V27.0853H174.16C173.637 27.0853 173.224 27.2161 172.919 27.456C172.614 27.6959 172.352 28.0666 172.135 28.5246L171.067 30.8798C170.937 31.1633 170.784 31.3596 170.61 31.4687C170.436 31.5559 170.24 31.6213 170.044 31.6213C169.935 31.6213 169.826 31.6213 169.739 31.5777C169.652 31.5559 169.543 31.5341 169.434 31.4905L170.828 28.5246C170.937 28.2847 171.045 28.0884 171.133 27.914C171.22 27.7395 171.329 27.5869 171.416 27.456C171.525 27.3252 171.634 27.2161 171.764 27.1071C171.895 27.0199 172.047 26.9108 172.222 26.8236C171.525 26.6709 170.98 26.3438 170.588 25.864C170.196 25.3843 170 24.7737 170 24.0104C170 23.6178 170.065 23.2253 170.218 22.8764C170.37 22.5274 170.588 22.1785 170.893 21.9168C171.198 21.6333 171.568 21.4152 172.004 21.2626C172.439 21.1099 172.984 21.0227 173.572 21.0227H177.689V31.425H176.404Z" fill="url(#paint9_linear_9_537)"/>
<path d="M195.266 31.4251L194.656 22.7456L191.541 28.9608H190.583L187.643 23.0509L187.033 31.4469H185.835L186.641 21.0664C186.641 21.0664 186.815 21.0228 186.924 21.001C187.033 21.001 187.142 21.001 187.272 21.001C187.621 21.001 187.882 21.1754 188.078 21.5462L191.084 27.8268L194.155 21.5898C194.264 21.3499 194.416 21.1754 194.591 21.11C194.765 21.0446 194.917 21.0228 195.048 21.0228C195.157 21.0228 195.288 21.0228 195.397 21.0228C195.505 21.0228 195.614 21.0664 195.68 21.0882L196.442 31.4687H195.244L195.266 31.4251Z" fill="url(#paint10_linear_9_537)"/>
<path d="M205.873 25.8859C205.873 25.8859 205.699 25.8859 205.59 25.8859H205.285C204.697 25.8859 204.131 25.9295 203.543 25.995C202.954 26.0604 202.432 26.213 201.931 26.4093C201.452 26.6056 201.06 26.8891 200.755 27.238C200.45 27.5869 200.297 28.0449 200.297 28.6119C200.297 28.8736 200.341 29.1135 200.406 29.3534C200.471 29.5932 200.58 29.8113 200.755 30.0076C200.907 30.2039 201.125 30.3565 201.408 30.4656C201.669 30.5746 202.04 30.64 202.454 30.64C202.911 30.64 203.347 30.5746 203.76 30.4219C204.174 30.2911 204.523 30.1166 204.828 29.9422C205.133 29.7677 205.394 29.5714 205.568 29.3534C205.742 29.1353 205.83 28.9826 205.83 28.8518V25.9077L205.873 25.8859ZM208.378 31.4251C208.073 31.4905 207.812 31.5341 207.572 31.5341C207.115 31.5341 206.744 31.4251 206.396 31.207C206.069 30.9889 205.873 30.64 205.851 30.1384C205.416 30.5746 204.915 30.9235 204.327 31.1852C203.739 31.4687 203.042 31.5996 202.236 31.5996C201.887 31.5996 201.539 31.556 201.168 31.4687C200.798 31.3815 200.428 31.2288 200.123 31.0108C199.796 30.7927 199.535 30.4656 199.317 30.0948C199.099 29.7023 198.99 29.2007 198.99 28.5901C198.99 27.8486 199.186 27.238 199.578 26.7582C199.971 26.2785 200.471 25.9077 201.06 25.646C201.648 25.3843 202.279 25.1881 202.954 25.079C203.63 24.97 204.261 24.9264 204.806 24.9264C204.98 24.9264 205.154 24.9264 205.307 24.9264C205.481 24.9264 205.634 24.9264 205.808 24.9482V24.403C205.808 24.0541 205.764 23.7269 205.699 23.4216C205.634 23.1163 205.503 22.8546 205.307 22.6365C205.133 22.4185 204.871 22.244 204.523 22.1132C204.196 21.9823 203.76 21.9169 203.216 21.9169C202.497 21.9169 201.887 22.0041 201.364 22.2004C200.842 22.3967 200.45 22.5929 200.145 22.8328H199.949C199.731 22.5493 199.644 22.2876 199.644 22.1132C199.644 22.0041 199.709 21.8951 199.818 21.786C199.927 21.6988 200.079 21.5898 200.232 21.5025C200.624 21.2845 201.103 21.1318 201.691 21.001C202.279 20.8701 202.824 20.8047 203.368 20.8047C204.087 20.8047 204.697 20.8919 205.198 21.0664C205.677 21.2408 206.069 21.4807 206.352 21.786C206.635 22.0913 206.853 22.5057 206.962 22.9637C207.071 23.4216 207.136 23.9668 207.136 24.5993V29.0917C207.136 29.506 207.158 29.8331 207.224 30.0512C207.289 30.2911 207.376 30.4656 207.463 30.5964C207.572 30.7273 207.703 30.8145 207.833 30.8363C207.986 30.8799 208.16 30.9017 208.356 30.9235V31.4033L208.378 31.4251Z" fill="url(#paint11_linear_9_537)"/>
<path d="M218.136 23.2472C217.831 22.8329 217.461 22.5058 217.003 22.2659C216.546 22.026 216.001 21.8952 215.326 21.8952C214.694 21.8952 214.172 22.0042 213.736 22.2223C213.279 22.4404 212.93 22.7457 212.647 23.1382C212.364 23.5308 212.168 23.9887 212.015 24.5121C211.885 25.0355 211.819 25.6243 211.819 26.2567C211.819 26.8892 211.885 27.478 212.015 28.0232C212.146 28.5684 212.364 29.0263 212.647 29.4407C212.93 29.8332 213.3 30.1385 213.758 30.3566C214.193 30.5747 214.738 30.6837 215.391 30.6837C215.871 30.6837 216.284 30.6183 216.611 30.4875C216.96 30.3566 217.243 30.204 217.482 30.0513C217.722 29.8986 217.94 29.6806 218.179 29.4189C218.266 29.4843 218.375 29.5933 218.506 29.746C218.637 29.8986 218.702 30.0295 218.702 30.1603C218.702 30.313 218.571 30.5311 218.31 30.7491C218.049 30.9672 217.678 31.1853 217.177 31.4252C216.676 31.6433 216.045 31.7741 215.282 31.7741C214.847 31.7741 214.346 31.7087 213.801 31.5997C213.257 31.4906 212.734 31.2289 212.233 30.8364C211.732 30.4438 211.318 29.8986 210.992 29.179C210.643 28.4593 210.491 27.4998 210.491 26.3003C210.491 25.1009 210.665 24.2286 211.035 23.5308C211.405 22.8329 211.819 22.2659 212.32 21.8734C212.821 21.4808 213.344 21.2191 213.91 21.0665C214.455 20.9356 214.934 20.8484 215.348 20.8484C216.11 20.8484 216.72 20.9574 217.221 21.1537C217.7 21.3718 218.092 21.5899 218.354 21.8079C218.506 21.9388 218.615 22.0696 218.68 22.1569C218.724 22.2659 218.767 22.3531 218.767 22.4622C218.767 22.5712 218.724 22.7021 218.659 22.8547C218.593 22.9856 218.506 23.1382 218.419 23.2909H218.223L218.136 23.2472Z" fill="url(#paint12_linear_9_537)"/>
<path d="M224.104 31.4251V22.0259H220.445C220.445 22.0259 220.423 21.8951 220.423 21.8297C220.423 21.2845 220.771 21.001 221.446 21.001H229.026C229.026 21.001 229.048 21.1318 229.048 21.1972C229.048 21.7424 228.7 22.0259 228.024 22.0259H225.367V31.4251H224.082H224.104Z" fill="url(#paint13_linear_9_537)"/>
<path d="M237.935 25.5152C237.935 25.0136 237.891 24.5556 237.804 24.0977C237.717 23.6615 237.564 23.269 237.347 22.9419C237.129 22.6147 236.824 22.353 236.454 22.1568C236.083 21.9605 235.604 21.8733 235.038 21.8733C234.101 21.8733 233.361 22.1786 232.794 22.7892C232.228 23.3998 231.923 24.3157 231.901 25.4934H237.956L237.935 25.5152ZM231.858 26.4529C231.858 27.0635 231.945 27.6305 232.097 28.1539C232.25 28.6773 232.468 29.1135 232.751 29.4842C233.034 29.8549 233.404 30.1384 233.862 30.3565C234.297 30.5528 234.842 30.6618 235.452 30.6618C235.909 30.6618 236.301 30.6182 236.65 30.5092C236.998 30.4219 237.281 30.2911 237.521 30.1603C237.76 30.0294 237.956 29.8767 238.131 29.7241C238.283 29.5714 238.392 29.4624 238.479 29.3534C238.632 29.506 238.741 29.6587 238.828 29.8113C238.915 29.9422 238.958 30.0512 238.958 30.1384C238.958 30.2693 238.871 30.4219 238.697 30.5964C238.523 30.7709 238.283 30.9453 237.978 31.1198C237.673 31.2943 237.281 31.4251 236.846 31.556C236.41 31.665 235.931 31.7304 235.386 31.7304C234.668 31.7304 234.014 31.6214 233.426 31.4033C232.816 31.1852 232.293 30.8581 231.858 30.4001C231.422 29.9422 231.074 29.3752 230.834 28.6555C230.594 27.9577 230.464 27.1072 230.464 26.1476C230.464 25.1881 230.594 24.403 230.856 23.7269C231.117 23.0509 231.466 22.5057 231.901 22.0695C232.337 21.6334 232.838 21.3281 233.404 21.11C233.971 20.8919 234.537 20.8047 235.125 20.8047C235.844 20.8047 236.475 20.9355 236.998 21.1754C237.521 21.4153 237.935 21.7642 238.261 22.1786C238.588 22.5929 238.828 23.0727 238.98 23.6179C239.133 24.1631 239.198 24.7301 239.198 25.3189C239.198 25.6678 239.198 26.0386 239.133 26.4311H231.836L231.858 26.4529Z" fill="url(#paint14_linear_9_537)"/>
<path d="M243.663 29.4187C243.663 29.4187 243.881 29.6368 244.033 29.7894C244.186 29.9421 244.382 30.0729 244.621 30.2038C244.861 30.3346 245.122 30.4437 245.427 30.5527C245.732 30.6399 246.059 30.7054 246.429 30.7054C247.496 30.7054 248.324 30.3564 248.89 29.6368C249.479 28.9171 249.762 27.8267 249.762 26.3438C249.762 25.7332 249.718 25.1662 249.609 24.621C249.5 24.0976 249.326 23.6396 249.086 23.2471C248.847 22.8545 248.498 22.5274 248.085 22.3093C247.671 22.0913 247.17 21.9604 246.56 21.9604C245.885 21.9604 245.318 22.0695 244.861 22.3093C244.404 22.5492 244.033 22.7891 243.816 23.0944C243.707 23.2471 243.641 23.4215 243.641 23.5742V29.4405L243.663 29.4187ZM242.378 36.2228V21.0227H242.465C242.77 21.0227 243.053 21.0881 243.293 21.2408C243.532 21.3934 243.663 21.6769 243.663 22.1131C243.772 22.004 243.924 21.895 244.12 21.7423C244.316 21.5897 244.534 21.4588 244.817 21.328C245.079 21.1971 245.384 21.0881 245.732 20.9791C246.081 20.8918 246.451 20.8264 246.865 20.8264C247.475 20.8264 248.041 20.9136 248.564 21.1099C249.086 21.3062 249.544 21.6115 249.936 22.0258C250.328 22.4402 250.633 23.0072 250.851 23.6832C251.069 24.3593 251.177 25.188 251.177 26.1475C251.177 27.2379 251.047 28.132 250.764 28.8517C250.48 29.5714 250.132 30.1384 249.696 30.5745C249.261 31.0107 248.782 31.2942 248.237 31.4686C247.714 31.6431 247.17 31.7303 246.647 31.7303C246.168 31.7303 245.754 31.6867 245.406 31.5777C245.057 31.4686 244.752 31.3596 244.512 31.2288C244.273 31.0979 244.077 30.9671 243.924 30.8362C243.772 30.7054 243.685 30.6181 243.641 30.5745V36.2009H242.356L242.378 36.2228Z" fill="url(#paint15_linear_9_537)"/>
<path d="M261.589 23.2472C261.284 22.8329 260.914 22.5058 260.456 22.2659C259.999 22.026 259.454 21.8952 258.779 21.8952C258.147 21.8952 257.625 22.0042 257.189 22.2223C256.753 22.4404 256.383 22.7457 256.1 23.1382C255.817 23.5308 255.621 23.9887 255.468 24.5121C255.338 25.0355 255.272 25.6243 255.272 26.2567C255.272 26.8892 255.338 27.478 255.468 28.0232C255.599 28.5684 255.817 29.0263 256.1 29.4407C256.383 29.8332 256.753 30.1385 257.211 30.3566C257.646 30.5747 258.191 30.6837 258.844 30.6837C259.324 30.6837 259.737 30.6183 260.064 30.4875C260.413 30.3566 260.696 30.204 260.935 30.0513C261.175 29.8986 261.393 29.6806 261.632 29.4189C261.719 29.4843 261.828 29.5933 261.959 29.746C262.09 29.8986 262.155 30.0295 262.155 30.1603C262.155 30.313 262.024 30.5311 261.763 30.7491C261.502 30.9672 261.131 31.1853 260.63 31.4252C260.129 31.6433 259.498 31.7741 258.735 31.7741C258.278 31.7741 257.799 31.7087 257.254 31.5997C256.71 31.4906 256.187 31.2289 255.686 30.8364C255.185 30.4438 254.771 29.8986 254.445 29.179C254.096 28.4593 253.944 27.4998 253.944 26.3003C253.944 25.1009 254.118 24.2286 254.488 23.5308C254.858 22.8329 255.272 22.2659 255.773 21.8734C256.274 21.4808 256.797 21.2191 257.363 21.0665C257.908 20.9356 258.387 20.8484 258.801 20.8484C259.563 20.8484 260.173 20.9574 260.674 21.1537C261.153 21.3718 261.545 21.5899 261.807 21.8079C261.959 21.9388 262.068 22.0696 262.133 22.1569C262.177 22.2659 262.22 22.3531 262.22 22.4622C262.22 22.5712 262.177 22.7021 262.111 22.8547C262.046 22.9856 261.959 23.1382 261.872 23.2909H261.676L261.589 23.2472Z" fill="url(#paint16_linear_9_537)"/>
<path d="M268.646 27.696C268.384 27.3689 268.123 27.1072 267.84 26.8891C267.557 26.671 267.186 26.5184 266.773 26.4529V25.646C267.23 25.5806 267.622 25.428 267.905 25.1881C268.188 24.9482 268.471 24.7083 268.689 24.403L270.345 22.0914C270.889 21.3281 271.521 20.9574 272.24 20.9574C272.544 20.9574 272.741 21.0228 272.871 21.1536C272.98 21.2845 273.045 21.5025 273.045 21.7861C272.61 21.7861 272.283 21.8515 272.022 22.0041C271.76 22.1568 271.521 22.3967 271.281 22.7238L269.713 24.861C269.561 25.0572 269.343 25.2753 269.081 25.4716C268.82 25.6678 268.515 25.8205 268.145 25.9295C268.493 26.0168 268.798 26.1694 269.06 26.3657C269.321 26.562 269.561 26.8019 269.778 27.0854L273.241 31.5123C273.024 31.5996 272.784 31.6432 272.544 31.6432C272.24 31.6432 272 31.5778 271.804 31.4469C271.608 31.3161 271.412 31.1416 271.194 30.8799L268.667 27.7178L268.646 27.696ZM264.856 31.4033V20.9355H264.943C265.248 20.9355 265.509 21.0228 265.771 21.1754C266.032 21.3281 266.141 21.6334 266.141 22.0914V31.4251H264.856V31.4033Z" fill="url(#paint17_linear_9_537)"/>
<path d="M281.54 25.8859C281.54 25.8859 281.366 25.8859 281.257 25.8859H280.952C280.364 25.8859 279.798 25.9295 279.209 25.995C278.621 26.0604 278.099 26.213 277.598 26.4093C277.118 26.6056 276.726 26.8891 276.422 27.238C276.117 27.5869 275.964 28.0449 275.964 28.6119C275.964 28.8736 276.008 29.1135 276.073 29.3534C276.138 29.5932 276.247 29.8113 276.422 30.0076C276.574 30.2039 276.792 30.3565 277.075 30.4656C277.336 30.5746 277.707 30.64 278.12 30.64C278.578 30.64 279.013 30.5746 279.427 30.4219C279.841 30.2911 280.19 30.1166 280.495 29.9422C280.799 29.7677 281.061 29.5714 281.235 29.3534C281.409 29.1353 281.496 28.9826 281.496 28.8518V25.9077L281.54 25.8859ZM284.045 31.4251C283.74 31.4905 283.479 31.5341 283.239 31.5341C282.782 31.5341 282.411 31.4251 282.063 31.207C281.736 30.9889 281.54 30.64 281.518 30.1384C281.083 30.5746 280.582 30.9235 279.994 31.1852C279.406 31.4687 278.709 31.5996 277.903 31.5996C277.554 31.5996 277.206 31.556 276.835 31.4687C276.465 31.3815 276.095 31.2288 275.79 31.0108C275.463 30.7927 275.202 30.4656 274.984 30.0948C274.766 29.7023 274.657 29.2007 274.657 28.5901C274.657 27.8486 274.853 27.238 275.245 26.7582C275.637 26.2785 276.138 25.9077 276.726 25.646C277.315 25.3843 277.946 25.1881 278.621 25.079C279.297 24.97 279.928 24.9264 280.473 24.9264C280.647 24.9264 280.821 24.9264 280.974 24.9264C281.148 24.9264 281.3 24.9264 281.475 24.9482V24.403C281.475 24.0541 281.431 23.7269 281.366 23.4216C281.3 23.1163 281.17 22.8546 280.974 22.6365C280.799 22.4185 280.538 22.244 280.19 22.1132C279.863 21.9823 279.427 21.9169 278.883 21.9169C278.164 21.9169 277.554 22.0041 277.031 22.2004C276.509 22.3967 276.117 22.5929 275.812 22.8328H275.616C275.398 22.5493 275.311 22.2876 275.311 22.1132C275.311 22.0041 275.376 21.8951 275.485 21.786C275.594 21.6988 275.746 21.5898 275.899 21.5025C276.291 21.2845 276.77 21.1318 277.358 21.001C277.946 20.8701 278.491 20.8047 279.035 20.8047C279.754 20.8047 280.364 20.8919 280.865 21.0664C281.344 21.2408 281.736 21.4807 282.019 21.786C282.302 22.0913 282.52 22.5057 282.629 22.9637C282.738 23.4216 282.803 23.9668 282.803 24.5993V29.0917C282.803 29.506 282.825 29.8331 282.89 30.0512C282.956 30.2911 283.043 30.4656 283.13 30.5964C283.239 30.7273 283.37 30.8145 283.5 30.8363C283.653 30.8799 283.827 30.9017 284.023 30.9235V31.4033L284.045 31.4251Z" fill="url(#paint18_linear_9_537)"/>
<path d="M292.714 22.0259H289.947C289.207 22.0259 288.619 22.2003 288.205 22.5493C287.791 22.8982 287.595 23.378 287.595 23.9886C287.595 25.3625 288.423 26.0603 290.056 26.0603H292.714V22.0041V22.0259ZM292.714 31.425V27.0853H290.47C289.947 27.0853 289.534 27.2161 289.229 27.456C288.924 27.6959 288.662 28.0666 288.445 28.5246L287.377 30.8798C287.247 31.1633 287.094 31.3596 286.92 31.4687C286.746 31.5559 286.55 31.6213 286.354 31.6213C286.245 31.6213 286.136 31.6213 286.049 31.5777C285.962 31.5559 285.853 31.5341 285.744 31.4905L287.138 28.5246C287.247 28.2847 287.356 28.0884 287.443 27.914C287.53 27.7395 287.639 27.5869 287.726 27.456C287.835 27.3252 287.944 27.2161 288.074 27.1071C288.205 27.0199 288.357 26.9108 288.532 26.8236C287.835 26.6709 287.29 26.3438 286.898 25.864C286.506 25.3843 286.31 24.7737 286.31 24.0104C286.31 23.6178 286.375 23.2253 286.528 22.8764C286.68 22.5274 286.898 22.1785 287.203 21.9168C287.508 21.6333 287.878 21.4152 288.314 21.2626C288.749 21.1099 289.294 21.0227 289.882 21.0227H293.999V31.425H292.714Z" fill="url(#paint19_linear_9_537)"/>
</g>
<defs>
<linearGradient id="paint0_linear_9_537" x1="-30.7982" y1="52.1862" x2="335.17" y2="139.214" gradientUnits="userSpaceOnUse">
<stop stop-color="#8DC63F"/>
<stop offset="0.2" stop-color="#5D9F3B"/>
<stop offset="0.41" stop-color="#357F38"/>
<stop offset="0.59" stop-color="#186735"/>
<stop offset="0.75" stop-color="#065934"/>
<stop offset="0.87" stop-color="#005434"/>
<stop offset="1" stop-color="#007C4D"/>
</linearGradient>
<linearGradient id="paint1_linear_9_537" x1="-18.9276" y1="2.28976" x2="347.04" y2="89.3174" gradientUnits="userSpaceOnUse">
<stop stop-color="#8DC63F"/>
<stop offset="0.2" stop-color="#5D9F3B"/>
<stop offset="0.41" stop-color="#357F38"/>
<stop offset="0.59" stop-color="#186735"/>
<stop offset="0.75" stop-color="#065934"/>
<stop offset="0.87" stop-color="#005434"/>
<stop offset="1" stop-color="#007C4D"/>
</linearGradient>
<linearGradient id="paint2_linear_9_537" x1="-18.2306" y1="-0.654204" x2="347.737" y2="86.3734" gradientUnits="userSpaceOnUse">
<stop stop-color="#8DC63F"/>
<stop offset="0.2" stop-color="#5D9F3B"/>
<stop offset="0.41" stop-color="#357F38"/>
<stop offset="0.59" stop-color="#186735"/>
<stop offset="0.75" stop-color="#065934"/>
<stop offset="0.87" stop-color="#005434"/>
<stop offset="1" stop-color="#007C4D"/>
</linearGradient>
<linearGradient id="paint3_linear_9_537" x1="-17.5773" y1="-3.42383" x2="348.391" y2="83.6038" gradientUnits="userSpaceOnUse">
<stop stop-color="#8DC63F"/>
<stop offset="0.2" stop-color="#5D9F3B"/>
<stop offset="0.41" stop-color="#357F38"/>
<stop offset="0.59" stop-color="#186735"/>
<stop offset="0.75" stop-color="#065934"/>
<stop offset="0.87" stop-color="#005434"/>
<stop offset="1" stop-color="#007C4D"/>
</linearGradient>
<linearGradient id="paint4_linear_9_537" x1="-16.9019" y1="-6.19339" x2="349.066" y2="80.8341" gradientUnits="userSpaceOnUse">
<stop stop-color="#8DC63F"/>
<stop offset="0.2" stop-color="#5D9F3B"/>
<stop offset="0.41" stop-color="#357F38"/>
<stop offset="0.59" stop-color="#186735"/>
<stop offset="0.75" stop-color="#065934"/>
<stop offset="0.87" stop-color="#005434"/>
<stop offset="1" stop-color="#007C4D"/>
</linearGradient>
<linearGradient id="paint5_linear_9_537" x1="-16.4664" y1="-8.0907" x2="349.501" y2="78.9369" gradientUnits="userSpaceOnUse">
<stop stop-color="#8DC63F"/>
<stop offset="0.2" stop-color="#5D9F3B"/>
<stop offset="0.41" stop-color="#357F38"/>
<stop offset="0.59" stop-color="#186735"/>
<stop offset="0.75" stop-color="#065934"/>
<stop offset="0.87" stop-color="#005434"/>
<stop offset="1" stop-color="#007C4D"/>
</linearGradient>
<linearGradient id="paint6_linear_9_537" x1="-15.6821" y1="-11.4054" x2="350.285" y2="75.622" gradientUnits="userSpaceOnUse">
<stop stop-color="#8DC63F"/>
<stop offset="0.2" stop-color="#5D9F3B"/>
<stop offset="0.41" stop-color="#357F38"/>
<stop offset="0.59" stop-color="#186735"/>
<stop offset="0.75" stop-color="#065934"/>
<stop offset="0.87" stop-color="#005434"/>
<stop offset="1" stop-color="#007C4D"/>
</linearGradient>
<linearGradient id="paint7_linear_9_537" x1="-15.2029" y1="-13.3683" x2="350.764" y2="73.6591" gradientUnits="userSpaceOnUse">
<stop stop-color="#8DC63F"/>
<stop offset="0.2" stop-color="#5D9F3B"/>
<stop offset="0.41" stop-color="#357F38"/>
<stop offset="0.59" stop-color="#186735"/>
<stop offset="0.75" stop-color="#065934"/>
<stop offset="0.87" stop-color="#005434"/>
<stop offset="1" stop-color="#007C4D"/>
</linearGradient>
<linearGradient id="paint8_linear_9_537" x1="-14.5934" y1="-15.9633" x2="351.375" y2="71.0644" gradientUnits="userSpaceOnUse">
<stop stop-color="#8DC63F"/>
<stop offset="0.2" stop-color="#5D9F3B"/>
<stop offset="0.41" stop-color="#357F38"/>
<stop offset="0.59" stop-color="#186735"/>
<stop offset="0.75" stop-color="#065934"/>
<stop offset="0.87" stop-color="#005434"/>
<stop offset="1" stop-color="#007C4D"/>
</linearGradient>
<linearGradient id="paint9_linear_9_537" x1="-14.0051" y1="-18.4495" x2="351.963" y2="68.5781" gradientUnits="userSpaceOnUse">
<stop stop-color="#8DC63F"/>
<stop offset="0.2" stop-color="#5D9F3B"/>
<stop offset="0.41" stop-color="#357F38"/>
<stop offset="0.59" stop-color="#186735"/>
<stop offset="0.75" stop-color="#065934"/>
<stop offset="0.87" stop-color="#005434"/>
<stop offset="1" stop-color="#007C4D"/>
</linearGradient>
<linearGradient id="paint10_linear_9_537" x1="-13.0687" y1="-22.3748" x2="352.899" y2="64.6528" gradientUnits="userSpaceOnUse">
<stop stop-color="#8DC63F"/>
<stop offset="0.2" stop-color="#5D9F3B"/>
<stop offset="0.41" stop-color="#357F38"/>
<stop offset="0.59" stop-color="#186735"/>
<stop offset="0.75" stop-color="#065934"/>
<stop offset="0.87" stop-color="#005434"/>
<stop offset="1" stop-color="#007C4D"/>
</linearGradient>
<linearGradient id="paint11_linear_9_537" x1="-12.415" y1="-25.1226" x2="353.553" y2="61.9049" gradientUnits="userSpaceOnUse">
<stop stop-color="#8DC63F"/>
<stop offset="0.2" stop-color="#5D9F3B"/>
<stop offset="0.41" stop-color="#357F38"/>
<stop offset="0.59" stop-color="#186735"/>
<stop offset="0.75" stop-color="#065934"/>
<stop offset="0.87" stop-color="#005434"/>
<stop offset="1" stop-color="#007C4D"/>
</linearGradient>
<linearGradient id="paint12_linear_9_537" x1="-11.7619" y1="-27.8485" x2="354.206" y2="59.1792" gradientUnits="userSpaceOnUse">
<stop stop-color="#8DC63F"/>
<stop offset="0.2" stop-color="#5D9F3B"/>
<stop offset="0.41" stop-color="#357F38"/>
<stop offset="0.59" stop-color="#186735"/>
<stop offset="0.75" stop-color="#065934"/>
<stop offset="0.87" stop-color="#005434"/>
<stop offset="1" stop-color="#007C4D"/>
</linearGradient>
<linearGradient id="paint13_linear_9_537" x1="-11.1522" y1="-30.4437" x2="354.816" y2="56.5842" gradientUnits="userSpaceOnUse">
<stop stop-color="#8DC63F"/>
<stop offset="0.2" stop-color="#5D9F3B"/>
<stop offset="0.41" stop-color="#357F38"/>
<stop offset="0.59" stop-color="#186735"/>
<stop offset="0.75" stop-color="#065934"/>
<stop offset="0.87" stop-color="#005434"/>
<stop offset="1" stop-color="#007C4D"/>
</linearGradient>
<linearGradient id="paint14_linear_9_537" x1="-10.6946" y1="-32.3192" x2="355.273" y2="54.7084" gradientUnits="userSpaceOnUse">
<stop stop-color="#8DC63F"/>
<stop offset="0.2" stop-color="#5D9F3B"/>
<stop offset="0.41" stop-color="#357F38"/>
<stop offset="0.59" stop-color="#186735"/>
<stop offset="0.75" stop-color="#065934"/>
<stop offset="0.87" stop-color="#005434"/>
<stop offset="1" stop-color="#007C4D"/>
</linearGradient>
<linearGradient id="paint15_linear_9_537" x1="-10.6728" y1="-32.4065" x2="355.295" y2="54.6212" gradientUnits="userSpaceOnUse">
<stop stop-color="#8DC63F"/>
<stop offset="0.2" stop-color="#5D9F3B"/>
<stop offset="0.41" stop-color="#357F38"/>
<stop offset="0.59" stop-color="#186735"/>
<stop offset="0.75" stop-color="#065934"/>
<stop offset="0.87" stop-color="#005434"/>
<stop offset="1" stop-color="#007C4D"/>
</linearGradient>
<linearGradient id="paint16_linear_9_537" x1="-9.43136" y1="-37.6402" x2="356.537" y2="49.3875" gradientUnits="userSpaceOnUse">
<stop stop-color="#8DC63F"/>
<stop offset="0.2" stop-color="#5D9F3B"/>
<stop offset="0.41" stop-color="#357F38"/>
<stop offset="0.59" stop-color="#186735"/>
<stop offset="0.75" stop-color="#065934"/>
<stop offset="0.87" stop-color="#005434"/>
<stop offset="1" stop-color="#007C4D"/>
</linearGradient>
<linearGradient id="paint17_linear_9_537" x1="-8.88651" y1="-39.9737" x2="357.081" y2="47.0538" gradientUnits="userSpaceOnUse">
<stop stop-color="#8DC63F"/>
<stop offset="0.2" stop-color="#5D9F3B"/>
<stop offset="0.41" stop-color="#357F38"/>
<stop offset="0.59" stop-color="#186735"/>
<stop offset="0.75" stop-color="#065934"/>
<stop offset="0.87" stop-color="#005434"/>
<stop offset="1" stop-color="#007C4D"/>
</linearGradient>
<linearGradient id="paint18_linear_9_537" x1="-8.34242" y1="-42.1982" x2="357.626" y2="44.8296" gradientUnits="userSpaceOnUse">
<stop stop-color="#8DC63F"/>
<stop offset="0.2" stop-color="#5D9F3B"/>
<stop offset="0.41" stop-color="#357F38"/>
<stop offset="0.59" stop-color="#186735"/>
<stop offset="0.75" stop-color="#065934"/>
<stop offset="0.87" stop-color="#005434"/>
<stop offset="1" stop-color="#007C4D"/>
</linearGradient>
<linearGradient id="paint19_linear_9_537" x1="-7.75346" y1="-44.6843" x2="358.214" y2="42.343" gradientUnits="userSpaceOnUse">
<stop stop-color="#8DC63F"/>
<stop offset="0.2" stop-color="#5D9F3B"/>
<stop offset="0.41" stop-color="#357F38"/>
<stop offset="0.59" stop-color="#186735"/>
<stop offset="0.75" stop-color="#065934"/>
<stop offset="0.87" stop-color="#005434"/>
<stop offset="1" stop-color="#007C4D"/>
</linearGradient>
<clipPath id="clip0_9_537">
<rect width="306" height="138" fill="white"/>
</clipPath>
</defs>
</svg>
