<?xml version="1.0" encoding="utf-8"?><svg xmlns="http://www.w3.org/2000/svg" xmlns:xlink="http://www.w3.org/1999/xlink"><symbol viewBox="0 0 8 14" id="08_calendar-ch-l" xmlns="http://www.w3.org/2000/svg"><path d="M7 1L2.414 5.586a2 2 0 000 2.828L7 13"/></symbol><symbol viewBox="0 0 8 14" id="08_calendar-ch-r" xmlns="http://www.w3.org/2000/svg"><path d="M1 13l4.586-4.586a2 2 0 000-2.828L1 1"/></symbol><symbol viewBox="0 0 24 24" id="ant-design_filter-outlined" xmlns="http://www.w3.org/2000/svg"><path d="M3.373 3.61h17.254a.75.75 0 01.645 1.124l-5.452 9.268v5.639c0 .415-.333.75-.745.75h-6.15a.747.747 0 01-.745-.75V14L2.726 4.735a.75.75 0 01.647-1.125zm6.485 15.093h4.284v-3.656H9.855v3.656h.003zm-.225-5.545l.222.389h4.29l.222-.39 4.648-7.86H4.985l4.648 7.86z"/></symbol><symbol viewBox="0 0 19 53" id="arrow-left" xmlns="http://www.w3.org/2000/svg"><path d="M17.71 1.483L2.162 26.073 17.709 52.01"/></symbol><symbol viewBox="0 0 17 50" id="arrow-right" xmlns="http://www.w3.org/2000/svg"><path d="M.932.685l14.252 23.329L.932 48.62"/></symbol><symbol viewBox="0 0 22 24" id="basket" xmlns="http://www.w3.org/2000/svg"><g clip-path="url(#afclip0)"><path d="M10.363 18.443a2.046 2.046 0 00-2.045 2.042 2.046 2.046 0 004.09 0 2.046 2.046 0 00-2.045-2.042zm6.134 0a2.046 2.046 0 00-2.045 2.042 2.046 2.046 0 004.089 0 2.046 2.046 0 00-2.044-2.042zm3.978-8.199L7.413 6.891a.614.614 0 00-.75.73L8.67 16.4h-.786L5.482 5.895a.613.613 0 00-.474-.464l-4.27-.882A.614.614 0 00.489 5.75l3.885.802L6.797 17.15a.613.613 0 00.598.477h12.07a.615.615 0 00.607-.53l.858-6.175a.613.613 0 00-.455-.678zm-8.14 3.91a.613.613 0 01-1.227 0v-2.696a.613.613 0 011.227 0v2.696zm2.625 0a.613.613 0 01-1.227 0v-1.88a.613.613 0 011.227 0v1.88zm2.625 0a.613.613 0 01-1.227 0v-1.226a.613.613 0 011.227 0v1.226z"/></g><path fill-rule="evenodd" clip-rule="evenodd" d="M16.268 4.568a2.996 2.996 0 00-1.693-.523c-.627 0-1.21.193-1.693.523-.28-.843-.492-1.752-.492-2.383C12.39.98 13.37 0 14.575 0s2.185.98 2.185 2.185c0 .631-.212 1.54-.492 2.383zm-4.722 2.274l.024.006v-.011l-.024.005zm4.972 1.217c-1.333-.33-2.766-.681-4.129-1.013a2.185 2.185 0 114.129 1.013zm4.436 1.103c-.866-.217-2.155-.538-3.618-.9a2.995 2.995 0 00.243-1.425c.87.18 1.762.45 2.308.765.596.344.969.928 1.067 1.56zM9.869 6.439c-.36-.086-.706-.167-1.03-.243a2.19 2.19 0 01-.376-2.667 2.188 2.188 0 013.147-.7c.098.738.338 1.599.61 2.353a3.01 3.01 0 00-.449.774c-.628.113-1.305.278-1.902.483zm10.124.075a3.43 3.43 0 01-.217.114c-.696-.295-1.587-.526-2.397-.672a3.01 3.01 0 00-.449-.774c.262-.727.494-1.553.599-2.273.095-.067.189-.128.278-.18a2.188 2.188 0 012.986.8 2.188 2.188 0 01-.8 2.985z"/><defs><clipPath id="afclip0"><path transform="translate(0 3.064)" d="M0 0h20.936v20.936H0z"/></clipPath></defs></symbol><symbol viewBox="0 0 24 24" id="bi_sort-up" xmlns="http://www.w3.org/2000/svg"><path fill-rule="evenodd" clip-rule="evenodd" d="M4.5 19.5a.75.75 0 00.75-.75v-15a.75.75 0 00-1.5 0v15a.75.75 0 00.75.75z"/><path fill-rule="evenodd" clip-rule="evenodd" d="M8.031 7.281a.75.75 0 000-1.062l-3-3a.75.75 0 00-1.062 0l-3 3a.75.75 0 101.062 1.062L4.5 4.811l2.469 2.47a.75.75 0 001.062 0zM10.5 14.25a.75.75 0 01.75-.75h4.5a.75.75 0 010 1.5h-4.5a.75.75 0 01-.75-.75zm0-4.5a.75.75 0 01.75-.75h7.5a.75.75 0 010 1.5h-7.5a.75.75 0 01-.75-.75zm0-4.5a.75.75 0 01.75-.75h10.5a.75.75 0 010 1.5h-10.5a.75.75 0 01-.75-.75zm0 13.5a.75.75 0 01.75-.75h1.5a.75.75 0 010 1.5h-1.5a.75.75 0 01-.75-.75z"/></symbol><symbol viewBox="0 0 23 13" id="cevron-down" xmlns="http://www.w3.org/2000/svg"><path d="M1 1l10.5 10.5L22 1"/></symbol><symbol viewBox="0 0 344.96 344.96" id="check" xmlns="http://www.w3.org/2000/svg"><g data-name="Слой 2"><path d="M321.85 86.24l-40-23.11-23.1-40H212.5L172.48 0l-40 23.11H86.24l-23.11 40-40 23.1v46.21L0 172.48l23.11 40v46.21l40 23.11 23.11 40h46.21l40 23.1 40-23.11h46.21l23.11-40 40-23.11V212.5l23.11-40-23.11-40V86.24zM156.91 243.07a16.79 16.79 0 01-23.34 0l-50.45-50.44a16.19 16.19 0 010-22.89l13.35-13.35a16.19 16.19 0 0122.89 0l25.87 25.87 80.34-80.35a16.19 16.19 0 0122.89 0l13.35 13.35a16.19 16.19 0 010 22.89z" data-name="Capa 1"/></g></symbol><symbol viewBox="0 0 8 14" id="chevron-left" xmlns="http://www.w3.org/2000/svg"><path d="M7 1L2.414 5.586a2 2 0 000 2.828L7 13"/></symbol><symbol viewBox="0 0 5 9" id="chevron-right" xmlns="http://www.w3.org/2000/svg"><path d="M1 1l3 3.5L1 8"/></symbol><symbol viewBox="0 0 17 17" id="cursor" xmlns="http://www.w3.org/2000/svg"><path fill-rule="evenodd" clip-rule="evenodd" d="M5.672.911a1 1 0 10-1.932.518l.259.966a1 1 0 101.932-.518l-.26-.966h.001zM1.429 3.74a1 1 0 10-.517 1.932l.966.259a1 1 0 00.517-1.932l-.966-.26v.001zm8.814-.569a.999.999 0 10-1.415-1.414l-.707.707a1 1 0 101.415 1.415l.707-.708zm-7.071 7.072l.707-.707A1 1 0 002.465 8.12l-.708.707a1 1 0 101.415 1.415v.001zm3.2-5.171a1 1 0 00-1.3 1.3l4 10a1 1 0 001.823.075l1.38-2.759 3.018 3.02a1 1 0 001.414-1.415l-3.019-3.02 2.76-1.379a1 1 0 00-.076-1.822l-10-4z"/></symbol><symbol viewBox="0 0 21 21" id="donate" xmlns="http://www.w3.org/2000/svg"><g clip-path="url(#amclip0)" fill-opacity=".7"><path d="M8.269 16.458l-.83.498a2.773 2.773 0 01-4.043-1.457 2.905 2.905 0 00-.763 1.966 2.92 2.92 0 002.916 2.917 2.92 2.92 0 002.917-2.917c0-.347-.076-.685-.197-1.007zm9.944-13.542L12.38.416a.418.418 0 00-.49.122l-1.666 2.083a.42.42 0 00.14.634L16.656 6.4a1.24 1.24 0 001.429-.219 1.24 1.24 0 00.38-.898V3.299c0-.168-.1-.318-.253-.383z"/><path d="M5.133 17.191V18.3a.417.417 0 00.833 0v-.952a2.753 2.753 0 01-.833-.156zM16.285 7.147L9.277 3.643l-4.162 1.56a2.09 2.09 0 00-1.055.88L2.33 8.966a2.072 2.072 0 00-.077 2.004l1.227 2.455a2.526 2.526 0 011.056-1.201 38.68 38.68 0 001.454-.87c-.018-.011-.031-.03-.05-.04-.075-.454-.297-.856-.507-1.15.637-.274 1.49-.768 1.922-1.273a4.9 4.9 0 001.51.575c-.486.602-.982 1.348-1.162 1.845a8.83 8.83 0 00-.731.39c-.44.309-1.077.703-2.022 1.246-.426.245-.725.681-.84 1.227a1.948 1.948 0 00-.039.352c0 .038.003.075.004.112a1.835 1.835 0 00.115.6c.013.033.024.068.038.102.047.108.1.215.168.315a1.969 1.969 0 00.563.54c.374.235.824.339 1.265.297.054-.006.109-.01.163-.021a1.923 1.923 0 00.623-.228l2.864-1.718c.448-.109 2.675-.775 4.363-3.505a31.7 31.7 0 002.05-3.87c0-.002 0-.003-.002-.003z"/></g><defs><clipPath id="amclip0"><path transform="translate(.25 .382)" d="M0 0h20v20H0z"/></clipPath></defs></symbol><symbol viewBox="0 0 21 13" id="eye" xmlns="http://www.w3.org/2000/svg"><path d="M10.25.421c-3.821 0-7.286 2.09-9.844 5.486a.792.792 0 000 .946c2.558 3.4 6.023 5.49 9.844 5.49 3.821 0 7.287-2.09 9.843-5.486a.792.792 0 000-.945c-2.556-3.4-6.022-5.49-9.843-5.49zm.274 10.159a4.21 4.21 0 01-4.472-4.472 4.216 4.216 0 013.924-3.924 4.209 4.209 0 014.472 4.472 4.23 4.23 0 01-3.924 3.924zm-.127-1.94a2.261 2.261 0 01-2.405-2.405 2.275 2.275 0 012.115-2.115 2.261 2.261 0 012.405 2.405 2.275 2.275 0 01-2.115 2.115z" fill-opacity=".7"/></symbol><symbol viewBox="0 0 24 24" id="fb" xmlns="http://www.w3.org/2000/svg"><path d="M13.397 20.997v-8.196h2.765l.411-3.209h-3.176V7.548c0-.926.258-1.56 1.587-1.56h1.684v-2.86A22.108 22.108 0 0014.201 3c-2.444 0-4.122 1.492-4.122 4.231v2.355H7.332v3.21h2.753v8.201h3.312z"/></symbol><symbol viewBox="0 0 24 24" id="feather_user-check" xmlns="http://www.w3.org/2000/svg"><path d="M16 21v-2a4 4 0 00-4-4H5a4 4 0 00-4 4v2m7.5-10a4 4 0 100-8 4 4 0 000 8zm8.5 0l2 2 4-4"/></symbol><symbol viewBox="0 0 20 18" id="filter" xmlns="http://www.w3.org/2000/svg"><path d="M1.373.61h17.254a.75.75 0 01.645 1.124l-5.452 9.268v5.639c0 .415-.333.75-.745.75h-6.15a.747.747 0 01-.745-.75V11L.726 1.735A.75.75 0 011.373.61zm6.485 15.093h4.284v-3.656H7.855v3.656h.003zm-.225-5.545l.222.389h4.29l.222-.39 4.648-7.86H2.985l4.648 7.86z"/></symbol><symbol viewBox="0 0 16 16" id="flower" xmlns="http://www.w3.org/2000/svg"><g clip-path="url(#arclip0)"><path fill-rule="evenodd" clip-rule="evenodd" d="M15.164 8.404c-.17-.094-.522-.237-.982-.403.46-.166.81-.308.981-.402 1.016-.549 1.121-2.16.235-3.598-.887-1.437-2.429-2.157-3.444-1.609-.173.095-.48.306-.865.597.078-.458.12-.814.12-1 0-1.1-1.438-1.99-3.209-1.99-1.771 0-3.21.89-3.21 1.99 0 .186.043.541.121.998a8.564 8.564 0 00-.863-.596C3.032 1.842 1.488 2.562.603 4c-.885 1.437-.779 3.048.235 3.597.173.095.522.238.985.404-.463.167-.814.31-.986.404-1.016.549-1.12 2.158-.235 3.597.886 1.437 2.429 2.157 3.444 1.608.173-.093.479-.304.865-.595-.078.457-.12.81-.12.997C4.79 15.111 6.226 16.001 8 16.001c1.771 0 3.208-.89 3.208-1.989 0-.187-.04-.542-.119-1.001.385.293.693.505.866.598 1.016.549 2.558-.17 3.443-1.607.887-1.439.781-3.049-.234-3.598zM8 11.047a3.047 3.047 0 110-6.092 3.048 3.048 0 013.05 3.046A3.05 3.05 0 018 11.047z"/></g><defs><clipPath id="arclip0"><path d="M0 0h16v16H0z"/></clipPath></defs></symbol><symbol viewBox="0 0 24 24" id="heart-outlined" xmlns="http://www.w3.org/2000/svg"><path d="M21.633 6.647a6.093 6.093 0 00-1.334-1.94A6.219 6.219 0 0015.93 2.93 6.26 6.26 0 0012 4.315 6.26 6.26 0 008.07 2.93 6.219 6.219 0 003.7 4.706a6.057 6.057 0 00-1.825 4.33c0 .78.16 1.593.476 2.42.265.692.644 1.409 1.13 2.133.768 1.146 1.825 2.341 3.138 3.553a35.071 35.071 0 004.42 3.453l.556.356a.753.753 0 00.808 0l.556-.357a35.517 35.517 0 004.42-3.452c1.312-1.211 2.37-2.407 3.138-3.553.485-.724.867-1.441 1.13-2.133.316-.827.476-1.64.476-2.42a5.968 5.968 0 00-.49-2.39zM12 19.097S3.656 13.75 3.656 9.035c0-2.388 1.976-4.324 4.414-4.324 1.713 0 3.199.956 3.93 2.353a4.426 4.426 0 013.93-2.353c2.438 0 4.414 1.936 4.414 4.324 0 4.716-8.344 10.062-8.344 10.062z"/></symbol><symbol viewBox="0 0 24 24" id="instagram" xmlns="http://www.w3.org/2000/svg"><path d="M11.999 7.377a4.624 4.624 0 100 9.248 4.624 4.624 0 000-9.248zm0 7.627a3.004 3.004 0 110-6.008 3.004 3.004 0 010 6.008zm4.807-6.719a1.078 1.078 0 100-2.156 1.078 1.078 0 000 2.156z"/><path d="M20.533 6.11A4.605 4.605 0 0017.9 3.48a6.607 6.607 0 00-2.186-.42c-.963-.042-1.268-.054-3.71-.054s-2.755 0-3.71.054a6.554 6.554 0 00-2.184.42 4.6 4.6 0 00-2.633 2.63 6.585 6.585 0 00-.419 2.186c-.043.962-.056 1.267-.056 3.71 0 2.442 0 2.753.056 3.71.015.748.156 1.486.419 2.187a4.61 4.61 0 002.634 2.632 6.583 6.583 0 002.185.45c.963.042 1.268.055 3.71.055s2.755 0 3.71-.055a6.616 6.616 0 002.186-.42 4.613 4.613 0 002.633-2.632c.263-.7.404-1.438.419-2.186.043-.962.056-1.267.056-3.71s0-2.753-.056-3.71a6.583 6.583 0 00-.421-2.217zm-1.218 9.533a5.046 5.046 0 01-.311 1.688 2.987 2.987 0 01-1.712 1.71c-.535.2-1.1.305-1.67.312-.95.044-1.218.055-3.654.055-2.438 0-2.687 0-3.655-.055a4.961 4.961 0 01-1.67-.311 2.984 2.984 0 01-1.718-1.711 5.08 5.08 0 01-.311-1.67c-.043-.95-.053-1.217-.053-3.653 0-2.437 0-2.686.053-3.655a5.038 5.038 0 01.311-1.687c.305-.79.93-1.41 1.719-1.712a5.01 5.01 0 011.669-.311c.95-.043 1.218-.055 3.655-.055s2.687 0 3.654.055a4.96 4.96 0 011.67.31 2.99 2.99 0 011.712 1.713 5.06 5.06 0 01.311 1.669c.043.95.054 1.218.054 3.655 0 2.436 0 2.698-.043 3.654h-.011v-.001z"/></symbol><symbol viewBox="0 0 24 24" id="mark" xmlns="http://www.w3.org/2000/svg"><path d="M18 4.48a8.485 8.485 0 00-12 12l5.27 5.28a1 1 0 001.42 0L18 16.43a8.45 8.45 0 000-11.95zM16.57 15L12 19.59 7.43 15a6.46 6.46 0 119.14 0zM9 7.41a4.32 4.32 0 000 6.1 4.31 4.31 0 007.36-3 4.24 4.24 0 00-1.26-3.05A4.301 4.301 0 009 7.41zm4.69 4.68a2.33 2.33 0 11.67-1.63 2.33 2.33 0 01-.72 1.63h.05z"/></symbol><symbol viewBox="0 0 30 30" id="pa-recicle" xmlns="http://www.w3.org/2000/svg"><g clip-path="url(#avclip0)" fill-rule="evenodd" clip-rule="evenodd"><path d="M5.351 13.399a.938.938 0 00-1.327 0l-3.75 3.75a.939.939 0 101.327 1.327l3.087-3.088 3.086 3.088a.939.939 0 001.327-1.327l-3.75-3.75zm24.376-1.875a.939.939 0 00-1.328 0l-3.086 3.088-3.086-3.088a.939.939 0 10-1.328 1.327l3.75 3.75a.937.937 0 001.328 0l3.75-3.75a.938.938 0 000-1.327z"/><path d="M15 5.625a9.365 9.365 0 00-7.86 4.262.938.938 0 01-1.57-1.024A11.25 11.25 0 0126.25 15a.938.938 0 01-1.877 0 9.375 9.375 0 00-9.375-9.375H15zM4.687 14.063a.938.938 0 01.938.937 9.375 9.375 0 0017.235 5.113.94.94 0 011.582-.039.938.938 0 01-.013 1.063A11.25 11.25 0 013.75 15a.938.938 0 01.94-.938h-.003z"/></g><defs><clipPath id="avclip0"><path d="M0 0h30v30H0z"/></clipPath></defs></symbol><symbol viewBox="0 0 24 24" id="search" xmlns="http://www.w3.org/2000/svg"><path d="M10 18a7.952 7.952 0 004.897-1.688l4.396 4.396 1.414-1.414-4.396-4.396A7.952 7.952 0 0018 10c0-4.411-3.589-8-8-8s-8 3.589-8 8 3.589 8 8 8zm0-14c3.309 0 6 2.691 6 6s-2.691 6-6 6-6-2.691-6-6 2.691-6 6-6z"/></symbol><symbol viewBox="0 0 16 15" id="star" xmlns="http://www.w3.org/2000/svg"><path d="M8 0l2.633 4.376 4.976 1.152-3.348 3.856.441 5.088L8 12.48l-4.702 1.992.441-5.088L.392 5.528l4.975-1.152L8 0z"/></symbol><symbol viewBox="0 0 16 16" id="telegram" xmlns="http://www.w3.org/2000/svg"><path d="M14.629 3.698l-2.012 9.618c-.152.679-.548.848-1.11.528l-3.066-2.29-1.48 1.442c-.163.166-.3.305-.616.305l.22-3.165 5.683-5.204c.247-.223-.054-.347-.384-.123L4.839 9.29l-3.024-.959c-.658-.208-.67-.667.137-.986L13.78 2.727c.548-.208 1.027.124.849.971z"/></symbol><symbol viewBox="0 0 24 24" id="time" xmlns="http://www.w3.org/2000/svg"><path d="M22.148 9.656h-6a.188.188 0 00-.187.188v1.125c0 .103.084.187.187.187h6a.188.188 0 00.188-.187V9.844a.188.188 0 00-.188-.188zm-3.14 3.188h-2.86a.188.188 0 00-.187.187v1.125c0 .103.084.188.187.188h2.86a.188.188 0 00.187-.188v-1.125a.188.188 0 00-.187-.187zm-7.821-5.285h-1.015a.262.262 0 00-.263.262v5.813c0 .084.04.161.108.21l3.49 2.546a.262.262 0 00.366-.056l.602-.823v-.002a.262.262 0 00-.059-.366l-2.97-2.147V7.821a.26.26 0 00-.26-.262z"/><path d="M18.863 15.794h-1.355a.386.386 0 00-.326.18 7.52 7.52 0 01-3.417 2.907 7.428 7.428 0 01-2.906.586 7.434 7.434 0 01-5.28-2.187A7.433 7.433 0 013.39 12a7.434 7.434 0 012.187-5.28 7.434 7.434 0 015.28-2.187 7.434 7.434 0 015.28 2.187c.4.398.746.834 1.044 1.305.07.112.195.18.326.18h1.355a.214.214 0 00.192-.311 9.166 9.166 0 00-8.086-5.056c-5.065-.063-9.272 4.083-9.281 9.143-.01 5.07 4.099 9.183 9.168 9.183a9.168 9.168 0 008.199-5.058.215.215 0 00-.192-.312z"/></symbol><symbol viewBox="0 0 23 18" id="variant" xmlns="http://www.w3.org/2000/svg"><path fill-rule="evenodd" clip-rule="evenodd" d="M8.031 5.281a.75.75 0 000-1.062l-3-3a.75.75 0 00-1.062 0l-3 3a.75.75 0 101.062 1.062L4.5 2.811l2.469 2.47a.75.75 0 001.062 0zM10.5 12.25a.75.75 0 01.75-.75h4.5a.75.75 0 010 1.5h-4.5a.75.75 0 01-.75-.75zm0-4.5a.75.75 0 01.75-.75h7.5a.75.75 0 010 1.5h-7.5a.75.75 0 01-.75-.75zm0-4.5a.75.75 0 01.75-.75h10.5a.75.75 0 010 1.5h-10.5a.75.75 0 01-.75-.75zm0 13.5a.75.75 0 01.75-.75h1.5a.75.75 0 010 1.5h-1.5a.75.75 0 01-.75-.75z"/></symbol><symbol viewBox="0 0 16 16" id="viber" xmlns="http://www.w3.org/2000/svg"><path d="M8 1.335c-1.071.013-3.374.19-4.662 1.37-.958.948-1.292 2.35-1.331 4.084-.033 1.728-.072 4.973 3.058 5.856v1.346s-.02.538.337.648c.438.14.688-.275 1.105-.72l.778-.879c2.142.178 3.782-.232 3.97-.293.435-.139 2.883-.451 3.283-3.696.41-3.351-.2-5.463-1.301-6.418h-.007c-.332-.306-1.668-1.279-4.652-1.29 0 0-.222-.014-.578-.008zm.037.942a7.02 7.02 0 01.488.011c2.527.007 3.732.767 4.017 1.023.927.794 1.405 2.697 1.055 5.495-.332 2.713-2.317 2.885-2.685 3.002-.156.05-1.6.406-3.42.289 0 0-1.356 1.634-1.78 2.055-.067.074-.146.095-.196.085-.071-.018-.093-.107-.089-.229l.013-2.233c-2.655-.733-2.498-3.5-2.47-4.946.033-1.446.304-2.628 1.113-3.43 1.088-.982 3.043-1.115 3.953-1.122zm.2 1.446a.166.166 0 100 .332 3.136 3.136 0 012.242.883c.606.588.9 1.378.912 2.411 0 .092.074.167.167.167V7.51a.167.167 0 00.168-.165 3.588 3.588 0 00-1.009-2.646c-.66-.645-1.496-.977-2.48-.977zm-2.198.382a.523.523 0 00-.342.067H5.69a2.61 2.61 0 00-.637.523 1.003 1.003 0 00-.256.525.71.71 0 00.026.302l.01.006c.172.504.396.988.67 1.444a8.48 8.48 0 001.29 1.762l.015.022.024.017.015.018.017.015c.532.505 1.127.94 1.769 1.295.734.4 1.18.588 1.447.667v.004c.078.024.15.034.221.034.228-.016.444-.109.613-.262a2.53 2.53 0 00.517-.638v-.004c.128-.241.085-.469-.1-.623-.37-.323-.77-.61-1.195-.857-.285-.155-.574-.061-.69.095l-.25.315c-.129.156-.361.134-.361.134l-.007.004C7.093 8.527 6.63 6.772 6.63 6.772s-.022-.239.139-.36l.312-.252c.15-.122.254-.41.094-.695a7.498 7.498 0 00-.856-1.194.475.475 0 00-.28-.167zm2.486.495c-.221 0-.221.334.003.334A2.098 2.098 0 0110 5.572 1.94 1.94 0 0110.5 7a.168.168 0 00.167.165l.007.009a.169.169 0 00.167-.167c.015-.662-.191-1.218-.595-1.663C9.84 4.9 9.273 4.65 8.549 4.6h-.024zm.274.898c-.228-.006-.236.335-.01.341.55.029.816.306.851.877a.166.166 0 00.165.163h.007a.168.168 0 00.16-.178c-.039-.744-.445-1.164-1.166-1.202H8.8z"/></symbol><symbol viewBox="0 0 24 24" id="vk" xmlns="http://www.w3.org/2000/svg"><path d="M21.579 6.855c.14-.465 0-.806-.662-.806h-2.193c-.558 0-.813.295-.953.619 0 0-1.115 2.719-2.695 4.482-.51.513-.743.675-1.021.675-.139 0-.341-.162-.341-.627V6.855c0-.558-.161-.806-.626-.806H9.642c-.348 0-.558.258-.558.504 0 .528.79.65.871 2.138v3.228c0 .707-.127.836-.407.836-.743 0-2.551-2.73-3.624-5.853-.209-.607-.42-.852-.98-.852H2.752c-.627 0-.752.295-.752.619 0 .582.743 3.462 3.461 7.27 1.812 2.602 4.363 4.012 6.687 4.012 1.393 0 1.565-.313 1.565-.853v-1.966c0-.626.133-.752.574-.752.324 0 .882.164 2.183 1.417 1.486 1.486 1.732 2.153 2.567 2.153h2.192c.626 0 .939-.313.759-.931-.197-.615-.907-1.51-1.849-2.57-.512-.603-1.277-1.253-1.51-1.578-.325-.42-.231-.604 0-.976.001 0 2.672-3.761 2.95-5.04z"/></symbol><symbol viewBox="0 0 16 16" id="whatsapp" xmlns="http://www.w3.org/2000/svg"><path fill-rule="evenodd" clip-rule="evenodd" d="M12.269 3.755A5.947 5.947 0 008.035 2 5.994 5.994 0 002.05 7.985a5.98 5.98 0 00.799 2.992L2 14.077l3.173-.832c.877.477 1.86.728 2.86.728h.002a5.993 5.993 0 005.533-8.276 5.953 5.953 0 00-1.3-1.942zm-4.234 9.208h-.002c-.89 0-1.765-.24-2.532-.694l-.181-.108-1.883.494.502-1.835-.118-.188a4.965 4.965 0 01-.76-2.647 4.982 4.982 0 016.88-4.597c.604.25 1.152.618 1.613 1.081a4.946 4.946 0 011.455 3.52 4.982 4.982 0 01-4.974 4.974zm2.729-3.726c-.15-.075-.885-.436-1.022-.486-.137-.05-.236-.075-.336.074-.1.15-.387.486-.474.586-.087.1-.175.112-.324.038-.15-.075-.631-.233-1.203-.742a4.505 4.505 0 01-.832-1.036c-.087-.15-.009-.231.066-.306.068-.066.15-.174.224-.262.075-.087.1-.149.15-.249.05-.1.025-.187-.013-.262-.037-.075-.337-.811-.461-1.11-.121-.29-.244-.252-.336-.256a6.418 6.418 0 00-.286-.005.55.55 0 00-.4.186c-.137.15-.523.512-.523 1.248s.536 1.447.61 1.547c.075.1 1.055 1.61 2.555 2.258.358.154.636.246.853.315.358.114.684.098.942.06.287-.043.885-.362 1.01-.711.124-.35.124-.649.087-.711-.038-.063-.138-.101-.287-.176z"/></symbol></svg>