<svg width="19" height="19" viewBox="0 0 19 19" fill="none" xmlns="http://www.w3.org/2000/svg">
<path fill-rule="evenodd" clip-rule="evenodd" d="M15.403 3.13303C14.5714 2.29591 13.5819 1.63214 12.4919 1.18018C11.4019 0.72821 10.233 0.49703 9.053 0.500029C4.105 0.500029 0.077 4.52703 0.075 9.47703C0.075 11.059 0.488 12.603 1.273 13.965L0 18.616L4.759 17.367C6.07539 18.0836 7.5502 18.4594 9.049 18.46H9.053C14 18.46 18.028 14.433 18.03 9.48303C18.0334 8.30351 17.803 7.13502 17.3521 6.04509C16.9012 4.95516 16.2387 3.9654 15.403 3.13303ZM9.053 16.945H9.05C7.71352 16.9452 6.40163 16.5856 5.252 15.904L4.98 15.742L2.156 16.483L2.909 13.73L2.732 13.448C1.98479 12.2585 1.58923 10.8818 1.591 9.47703C1.593 5.36303 4.94 2.01603 9.056 2.01603C10.0362 2.01385 11.0072 2.20611 11.9127 2.58168C12.8181 2.95725 13.6401 3.50867 14.331 4.20403C15.0256 4.89607 15.5762 5.71892 15.9509 6.62503C16.3256 7.53113 16.517 8.50251 16.514 9.48303C16.512 13.597 13.165 16.945 9.053 16.945ZM13.146 11.356C12.921 11.243 11.819 10.701 11.613 10.626C11.408 10.551 11.259 10.514 11.109 10.738C10.959 10.962 10.529 11.467 10.398 11.617C10.267 11.767 10.136 11.785 9.912 11.673C9.688 11.561 8.965 11.324 8.108 10.56C7.441 9.96503 6.991 9.23103 6.86 9.00603C6.729 8.78103 6.846 8.66003 6.959 8.54803C7.06 8.44803 7.183 8.28603 7.295 8.15503C7.407 8.02403 7.444 7.93103 7.519 7.78103C7.594 7.63103 7.557 7.50003 7.5 7.38803C7.444 7.27503 6.995 6.17103 6.808 5.72203C6.627 5.28703 6.442 5.34503 6.304 5.33903C6.16108 5.33318 6.01804 5.33052 5.875 5.33103C5.76125 5.33393 5.64934 5.36029 5.54626 5.40848C5.44318 5.45666 5.35117 5.52562 5.276 5.61103C5.07 5.83603 4.491 6.37803 4.491 7.48203C4.491 8.58603 5.295 9.65303 5.407 9.80303C5.519 9.95303 6.989 12.218 9.239 13.19C9.775 13.421 10.193 13.559 10.518 13.663C11.055 13.834 11.544 13.809 11.931 13.752C12.362 13.688 13.258 13.21 13.445 12.686C13.632 12.162 13.632 11.713 13.576 11.619C13.52 11.525 13.369 11.468 13.146 11.356Z" fill="#007C4D"/>
</svg>
